<?xml version="1.0" standalone="no"?>
<!DOCTYPE svg PUBLIC "-//W3C//DTD SVG 1.1//EN" "http://www.w3.org/Graphics/SVG/1.1/DTD/svg11.dtd">
<svg xmlns="http://www.w3.org/2000/svg">
<metadata>Generated by Fontastic.me</metadata>
<defs>
<font id="untitled-font-1" horiz-adv-x="512">
<font-face font-family="untitled-font-1" units-per-em="512" ascent="480" descent="-32"/>
<missing-glyph horiz-adv-x="512" />

<glyph glyph-name="air-conditioner" unicode="&#97;" d="M478 436l-444 0c-19 0-34-15-34-33l0-172c0-5 4-8 8-8l496 0c4 0 8 3 8 8l0 172c0 18-15 33-34 33z m-441-16l438 0 0-11c0-6-4-10-10-10l-418 0c-6 0-10 4-10 10z m438-138l-438 0 0 1c0 5 4 10 10 10l418 0c6 0 10-5 10-10z m-438-12l438 0 0-11-438 0z m0-22l438 0 0-9-438 0z m458-9l-8 0 0 44c0 12-10 21-22 21l-418 0c-12 0-22-9-22-21l0-44-8 0 0 164c0 6 3 11 8 14l0-8c0-12 10-22 22-22l418 0c12 0 22 10 22 22l0 8c5-3 8-8 8-14z m-213 88l-52 0c-3 0-6-3-6-6 0-3 3-6 6-6l52 0c3 0 6 3 6 6 0 3-3 6-6 6z m170 0c-2 0-3-1-4-2-1-1-2-2-2-4 0-1 1-3 2-4 1-1 2-2 4-2 1 0 3 1 4 2 1 1 1 3 1 4 0 2 0 3-1 4-1 1-3 2-4 2z m-26 0c-2 0-3-1-4-2-1-1-2-2-2-4 0-1 1-3 2-4 1-1 2-2 4-2 1 0 3 1 4 2 1 1 2 3 2 4 0 2-1 3-2 4-1 1-3 2-4 2z m-216-141c1 2 0 6-2 7-3 2-7 1-8-2-10-18-10-41 0-59 8-15 8-33 0-48-2-3-1-6 2-8 1 0 2 0 3 0 2 0 4 1 5 2 10 19 10 41 0 60-9 14-9 33 0 48z m51 0c1 2 0 6-2 7-3 2-6 1-8-2-10-18-10-41 0-59 8-15 8-33 0-48-1-3 0-6 2-8 1 0 2 0 3 0 2 0 4 1 5 2 10 19 10 41 0 60-8 14-8 33 0 48z m51 0c2 2 1 6-2 7-3 2-6 1-8-2-10-18-10-41 0-59 9-15 9-33 0-48-1-3 0-6 2-8 1 0 2 0 3 0 2 0 4 1 5 2 10 19 10 41 0 60-8 14-8 33 0 48z"/>
<glyph glyph-name="bathroom" unicode="&#98;" d="M503 17l-85 0 0 19c21 6 39 22 45 44l30 109c11 3 19 13 19 24 0 14-11 26-26 26l0 252c0 9-5 16-12 19-8 4-17 2-23-4l-22-22c-19 15-47 13-64-4-4-4-4-9 0-12l60-61c2-1 4-2 6-2 2 0 4 1 6 2 18 18 19 46 4 65l22 22c2 1 3 1 4 1 1-1 2-2 2-4l0-252-264 0 0 17-111 0 0-17-68 0c-15 0-26-12-26-26 0-11 8-21 19-24l30-109c6-22 24-38 45-44l0-19-85 0c-5 0-9-4-9-8 0-5 4-9 9-9l494 0c5 0 9 4 9 9 0 4-4 8-9 8z m-73 409l-46 47c12 7 28 5 38-5l3-3c10-11 12-27 5-39z m56-204c5 0 9-4 9-9 0-4-4-8-9-8l-281 0 0 17z m-298 17l0-94-77 0 0 94z m-77-111l77 0 0-17-77 0z m-85 94l68 0 0-17-68 0c-5 0-9 4-9 8 0 5 4 9 9 9z m40-138l-29 104 57 0 0-94 111 0 0 94 270 0-29-104c-5-19-23-33-43-33l-294 0c-20 0-38 14-43 33z m296-50l8-17-228 0 8 17z m-251-17l0 17 20 0-8-17z m278 0l-8 17 20 0 0-17z m12 376c5 0 9 3 9 8l0 9c0 4-4 8-9 8-5 0-8-4-8-8l0-9c0-5 3-8 8-8z m-8-60c0-5 3-9 8-9 5 0 9 4 9 9l0 8c0 5-4 9-9 9-5 0-8-4-8-9z m0-34c0-5 3-9 8-9 5 0 9 4 9 9l0 8c0 5-4 9-9 9-5 0-8-4-8-9z m0-34c0-5 3-9 8-9 5 0 9 4 9 9l0 8c0 5-4 9-9 9-5 0-8-4-8-9z m0 102c0-5 3-9 8-9 5 0 9 4 9 9l0 8c0 5-4 9-9 9-5 0-8-4-8-9z m-73 38c2 0 4 1 6 3l6 6c3 3 3 8 0 12-4 3-9 3-12 0l-6-6c-4-4-4-9 0-12 1-2 4-3 6-3z m-24-24c2 0 4 1 6 2l6 6c3 4 3 9 0 12-4 4-9 4-12 0l-6-6c-4-3-4-8 0-12 1-1 3-2 6-2z m-25-24c3 0 5 1 6 2l6 6c4 4 4 9 0 12-3 4-8 4-12 0l-6-6c-3-3-3-8 0-12 2-1 4-2 6-2z m73 72c2 0 4 1 6 3l6 6c3 3 3 8 0 12-3 3-9 3-12 0l-6-6c-4-4-4-9 0-12 1-2 4-3 6-3z m-121-121c2 0 5 1 6 3l6 6c4 3 4 9 0 12-3 3-9 3-12 0l-6-6c-3-3-3-9 0-12 2-2 4-3 6-3z m-48-48c2 0 4 1 6 3l6 6c3 3 3 8 0 12-3 3-9 3-12 0l-6-6c-3-4-3-9 0-12 2-2 4-3 6-3z m72 73c2 0 5 0 6 2l6 6c4 3 4 9 0 12-3 4-8 4-12 0l-6-6c-3-3-3-9 0-12 2-2 4-2 6-2z m-48-49c2 0 4 1 6 3l6 6c3 3 3 9 0 12-3 3-9 3-12 0l-6-6c-3-3-3-9 0-12 2-2 4-3 6-3z m135 60c1-1 3-2 4-2 3 0 6 2 8 5l4 7c2 4 1 10-4 12-4 2-9 1-11-3l-4-8c-3-4-1-9 3-11z m17 48l-4-7c-2-4-1-9 4-12 1 0 2-1 4-1 3 0 6 2 7 5l4 7c3 4 1 9-3 12-4 2-9 1-12-4z m16 11c1-1 3-1 4-1 3 0 6 2 8 5l4 7c2 4 1 9-3 12-5 2-10 0-12-4l-4-7c-2-4-1-9 3-12z m-55-116l5 8c2 4 0 9-4 11-4 3-9 1-11-3l-4-8c-3-4-1-9 3-11 1-1 3-1 4-1 3 0 6 1 7 4z m17 30l4 7c2 5 1 10-3 12-4 2-9 1-12-3l-4-8c-2-4-1-9 3-11 2-1 3-1 5-1 3 0 5 1 7 4z m-32-41c-4 3-10 1-12-3l-2-4c-3-4-1-10 3-12 1-1 3-1 4-1 3 0 6 2 8 4l2 5c2 4 1 9-3 11z"/>
<glyph glyph-name="bedroom" unicode="&#104;" d="M500 72l-13 0 0 115c0 26-21 47-47 47l-246 0c-5 22-26 39-50 39-28 0-51-23-51-52 0-3 0-6 1-10l-31 2c-1 1-2 1-3 1-19 0-35-16-35-36l0-106-13 0c-6 0-12-6-12-13 0-7 6-12 12-12l25 0c0 0 0 0 0 0l438 0c0 0 0 0 0 0l25 0c6 0 12 5 12 12 0 7-6 13-12 13z m-38 115l0-68-266 0 0 90 244 0c12 0 22-10 22-22z m-345 34c0 15 12 27 27 27 15 0 27-12 27-27l0-15-51 3c-2 4-3 8-3 12z m-67-43c0 7 5 11 11 11l110-8 0-15-121 0z m0-37l121 0 0-35c0-6 5-12 12-12l279 0 0-22-412 0z m132 164c-1-4 0-8 3-11 3-3 7-4 11-3l35 6c12-5 24-8 37-8 0 0 0 0 0 0 23 0 45 9 62 26 17 16 26 39 26 62 0 24-9 46-26 62-17 17-39 26-62 26-24 0-46-9-62-26-27-26-34-65-18-99z m41 117c12 12 28 18 45 18 17 0 33-6 45-18 12-12 18-28 18-45 0-17-6-33-18-45-12-12-28-18-45-18-10 0-20 2-29 7-2 1-4 1-6 1-1 0-1 0-2 0l-22-4 4 22c0 3 0 6-1 8-13 25-9 54 11 74z m17-56l18 19-9 0c-7 0-12 5-12 12 0 7 5 12 12 12l37 0c0 0 1 0 1 0 0 0 0 0 0 0 1 0 1 0 1 0 0 0 0 0 1 0 0 0 0 0 0 0 0 0 1 0 1 0 0 0 0 0 0 0 1 0 1 0 1 0 0-1 0-1 0-1 1 0 1 0 1 0 0 0 0 0 1 0 0 0 0 0 0-1 0 0 0 0 1 0 0 0 0 0 0 0 0 0 0-1 1-1 0 0 0 0 0 0 0 0 0 0 0 0 0 0 0 0 0-1 1 0 1 0 1 0 0 0 0 0 0 0 0-1 0-1 1-1 0 0 0 0 0 0 0-1 0-1 0-1 0 0 0 0 0 0 1-1 1-1 1-1 0 0 0 0 0-1 0 0 0 0 0 0 0 0 0-1 0-1 0 0 0 0 0 0 0-1 1-1 1-1 0 0 0 0 0-1 0 0 0 0 0 0 0 0 0-1 0-1 0 0 0 0 0 0 0 0 0 0 0 0 0-1 0-1 0-1 0 0 0 0 0-1 0 0 0 0 0 0-1 0-1-1-1-1 0 0 0 0 0 0 0-1 0-1 0-1 0 0 0 0 0 0 0-1 0-1 0-1 0 0-1 0-1-1 0 0 0 0 0 0 0 0 0 0 0-1 0 0 0 0-1 0 0 0 0 0 0-1 0 0 0 0 0 0 0 0 0 0-1 0l-17-20 8 0c7 0 13-5 13-12 0-7-6-12-13-12l-37 0c0 0 0 0 0 0 0 0-1 0-1 0 0 0 0 0 0 0-1 0-1 0-1 0 0 0 0 0-1 0 0 0 0 0 0 0 0 0-1 0-1 0 0 1 0 1 0 1-1 0-1 0-1 0 0 0 0 0 0 0-1 0-1 0-1 0 0 1 0 1 0 1-1 0-1 0-1 0 0 0 0 0 0 0-1 1-1 1-1 1 0 0 0 0 0 0 0 0 0 0 0 0 0 0-1 1-1 1 0 0 0 0 0 0 0 0 0 0 0 1-1 0-1 0-1 0 0 0 0 0 0 1 0 0 0 0-1 0 0 0 0 0 0 1 0 0 0 0 0 0 0 0 0 1 0 1 0 0 0 0 0 0-1 0-1 1-1 1 0 0 0 0 0 0 0 1 0 1 0 1 0 0 0 0 0 1 0 0 0 0 0 0 0 0 0 1 0 1 0 0 0 0 0 0 0 0 0 0 0 0 0 1 0 1 0 1 0 0 0 1 0 1 0 0 0 0 0 0 0 1 0 1 0 1 0 0 0 0 0 0 0 1 1 1 1 1 0 0 0 0 0 1 0 0 0 0 0 0 0 0 0 1 0 1 0 0 0 0 1 0 0 0 0 1 0 1 0 0 0 0 0 0 0 0 0 1 1 1 0 0 0 0 0 0 0 0 0 0 0 1z"/>
<glyph glyph-name="bluetooth" unicode="&#105;" d="M247 435l0-154-74 67-12-13 82-75-83-74 12-13 75 67 0-165 93 105-74 78 74 84z m69-94l-51-57 0 108z m-51-219l0 111 51-54z m-9 390c-89 0-162-73-162-162l0-188c0-89 73-162 162-162 89 0 162 73 162 162l0 188c0 89-73 162-162 162z m144-350c0-80-65-144-144-144-79 0-144 64-144 144l0 188c0 80 65 144 144 144 79 0 144-64 144-144z"/>
<glyph glyph-name="boy-2" unicode="&#107;" d="M438 87c-11 37-43 65-82 70l-42 7 0 9c28 16 48 43 55 75 20 3 36 20 36 41l0 74c0 11-1 21-3 30 7 14 11 30 11 47l0 70-13-8c0 0-21-13-50-24-27 22-60 34-94 34-82 0-149-67-149-149l0-74c0-21 16-38 36-41 7-32 27-59 55-75l0-9-42-7c-39-5-71-33-82-70l-27-87 418 0z m-67 179c0 2 1 4 1 7l0 39c9-3 16-12 16-23 0-11-7-20-17-23z m17 56c-5 3-10 6-16 7l0 29c5 5 11 10 16 15 0-3 0-6 0-10z m-264-33c0 11 7 20 16 23l0-39c0-3 1-5 1-7-10 3-17 12-17 23z m16 55l0-15c-6-1-11-3-16-7l0 41c0 73 59 132 132 132 27 0 53-8 75-23-18-6-38-10-58-10l0-16c51 0 101 23 123 35l0-41c0-47-38-85-85-85-8 0-17 1-25 4l-88 27c-5 1-9 2-13 2-25 0-45-20-45-44z m17-71l0 71c0 15 12 28 28 28 2 0 5-1 8-2l88-27c25-8 52-5 74 6l0-76c0-55-44-100-99-100-55 0-99 45-99 100z m140-108l0-7c-1-4-10-26-41-26-34 0-41 25-42 27l1 6c12-5 26-8 41-8 15 0 28 3 41 8z m-88-30c9-10 24-19 47-19 23 0 38 9 47 20l17-62-128 0z m-76-118l-64 0 21 65c9 31 36 54 68 59l37 6-21-77-20-20 3 23-17 2z m17 0l1 6 34 35 142 0 34-35 1-6z m222 58l-17-2 3-23-20 20-21 77 37-6c32-5 59-28 68-59l21-65-64 0z m-157 243c0-7-6-12-13-12-7 0-12 5-12 12 0 7 5 12 12 12 7 0 13-5 13-12z m107 0c0-7-5-12-12-12-7 0-13 5-13 12 0 7 6 12 13 12 7 0 12-5 12-12z m0-45l-16 0c0-28-23-50-50-50-27 0-50 22-50 50l-16 0c0-37 30-67 66-67 36 0 66 30 66 67z"/>
<glyph glyph-name="brightness-contrast" unicode="&#110;" d="M256 384c-71 0-128-57-128-128 0-71 57-128 128-128 71 0 128 57 128 128 0 71-57 128-128 128z m0-208l0 160c44 0 80-36 80-80 0-44-36-80-80-80z m0-80c18 0 32-14 32-32l0-32c0-18-14-32-32-32-18 0-32 14-32 32l0 32c0 18 14 32 32 32z m0 320c-18 0-32 14-32 32l0 32c0 18 14 32 32 32 18 0 32-14 32-32l0-32c0-18-14-32-32-32z m224-128c18 0 32-14 32-32 0-18-14-32-32-32l-32 0c-18 0-32 14-32 32 0 18 14 32 32 32z m-384-32c0-18-14-32-32-32l-32 0c-18 0-32 14-32 32 0 18 14 32 32 32l32 0c18 0 32-14 32-32z m318-113l23-23c13-12 13-33 0-45-12-13-33-13-45 0l-23 23c-12 12-12 32 0 45 13 12 33 12 45 0z m-316 226l-23 23c-13 12-13 33 0 45 12 13 33 13 45 0l23-23c12-12 12-32 0-45-13-12-33-12-45 0z m316 0c-12-12-32-12-45 0-12 13-12 33 0 45l23 23c12 13 33 13 45 0 13-12 13-33 0-45z m-316-226c12 12 32 12 45 0 12-13 12-33 0-45l-23-23c-12-13-33-13-45 0-13 12-13 33 0 45z"/>
<glyph glyph-name="calender" unicode="&#111;" d="M115 234c2 0 4 1 6 3l38 37 0-199-27 0c-4 0-8-4-8-9 0-5 4-9 8-9l71 0c5 0 9 4 9 9 0 5-4 9-9 9l-26 0 0 221c0 1-1 2-1 3-1 2-3 4-5 5-2 1-4 1-7 0-1-1-2-1-3-2l-52-53c-4-3-4-9 0-12 1-2 4-3 6-3z m150-106c0-39 32-71 70-71 39 0 71 32 71 71 0 27-15 51-38 62 18 11 29 31 29 53 0 34-27 62-62 62-34 0-61-28-61-62 0-22 11-42 29-53-23-11-38-35-38-62z m26 115c0 24 20 44 44 44 25 0 45-20 45-44 0-25-20-44-45-44-24 0-44 19-44 44z m44-62c30 0 53-24 53-53 0-29-23-53-53-53-29 0-53 24-53 53 0 29 24 53 53 53z m-105 327c-5 0-9-4-9-9 0-5 4-9 9-9 11 0 21-7 24-18l19 0c-4 20-22 36-43 36z m52 0c-4 0-8-4-8-9 0-5 4-9 8-9 12 0 22-7 25-18l19 0c-4 20-22 36-44 36z m53 0c-4 0-8-4-8-9 0-5 4-9 8-9 12 0 22-7 25-18l19 0c-4 20-22 36-44 36z m44-36c0-3 1-6 1-9 0-24-20-44-45-44-4 0-8 4-8 9 0 5 4 9 8 9 15 0 27 12 27 26 0 4-1 7-2 9l-34 0c0-3 1-6 1-9 0-24-20-44-45-44-4 0-8 4-8 9 0 5 4 9 8 9 15 0 27 12 27 26 0 4-1 7-2 9l-34 0c0-3 1-6 1-9 0-24-20-44-44-44-5 0-9 4-9 9 0 5 4 9 9 9 14 0 26 12 26 26 0 4-1 7-2 9l-34 0c0-3 1-6 1-9 0-24-20-44-44-44-5 0-9 4-9 9 0 5 4 9 9 9 14 0 26 12 26 26 0 4-1 7-2 9l-49 0c3 11 13 18 25 18 11 0 21-7 24-18l19 0c-4 20-22 36-43 36-22 0-40-16-44-36l-133 0 0-468 512 0 0 468z m115-450l-476 0 0 327 476 0z"/>
<glyph glyph-name="camera" unicode="&#112;" d="M471 380l-73 0-34 85-216 0-34-85-12 0 0 42-51 0 0-42-10 0c-23 0-41-19-41-41l0-251c0-23 19-41 41-41l430 0c23 0 41 18 41 41l0 251c0 22-18 41-41 41z m-403 25l17 0 0-25-17 0z m427-317c0-13-11-24-24-24l-430 0c-13 0-24 11-24 24l0 251c0 13 11 24 24 24l84 0 34 85 194 0 34-85 84 0c13 0 24-11 24-24z m-239 300c-85 0-154-69-154-153 0-85 69-154 154-154 85 0 154 69 154 154 0 84-69 153-154 153z m0-290c-75 0-137 61-137 137 0 75 62 136 137 136 75 0 137-61 137-136 0-76-62-137-137-137z m0 239c-56 0-102-46-102-102 0-57 46-103 102-103 56 0 102 46 102 103 0 56-46 102-102 102z m0-188c-47 0-85 39-85 86 0 47 38 85 85 85 47 0 85-38 85-85 0-47-38-86-85-86z m188 197c-19 0-34-16-34-35 0-18 15-34 34-34 19 0 34 16 34 34 0 19-15 35-34 35z m0-52c-10 0-17 8-17 17 0 10 7 18 17 18 9 0 17-8 17-18 0-9-8-17-17-17z"/>
<glyph glyph-name="camera-2" unicode="&#113;" d="M509 373c-3 4-8 6-13 6l-46 2 5 17c3 8-2 17-10 20l-284 88c-9 2-18-2-20-11l-45-142c-2-8 3-17 11-20l58-18-10-30c-1-4-1-9 1-13 2-3 6-6 10-7l26-8-65-105c-10 4-20 6-31 6l-80 0c-9 0-16-7-16-16l0-121c0-8 7-16 16-16l80 0c42 0 76 35 76 77 0 19-7 37-19 51 0 0 0 1 1 1l69 113 34-11c2 0 4-1 5-1 7 0 13 5 15 12l10 30 104-32c2-1 3-1 5-1 2 0 5 1 7 2 4 2 7 5 8 9l5 17 39-25c3-2 6-2 9-2 2 0 4 0 6 1 4 1 8 5 9 10l32 103c2 4 1 10-2 14z m-477-247l21 0 0-89-21 0z m64-89l-11 0 0 89 11 0c25 0 44-20 44-44 0-25-19-45-44-45z m156 234l-62 19 5 16 61-19z m133 9l-253 79 34 111 254-78-7-22-21-68c0 0 0 0 0 0z m70 6l-29 18 14 45 34-1z m-285 108c-5 0-9-2-12-5-3-3-4-7-4-11 0-5 1-9 4-12 3-3 7-4 12-4 4 0 8 1 11 4 3 3 5 7 5 12 0 4-2 8-5 11-3 3-7 5-11 5z"/>
<glyph glyph-name="chart" unicode="&#114;" d="M512 44l0-28-512 0 0 480 28 0 0-452 484 0z m-424 233c4 0 8 1 11 2l52-81c-7-7-12-16-12-27 0-20 17-37 37-37 21 0 38 17 38 37 0 6-2 11-4 16l68 50c5-5 12-8 19-8 9 0 16 4 22 9l69-43c-3-6-6-14-6-21 0-24 19-43 43-43 23 0 42 19 42 43 0 23-19 42-42 42-11 0-21-4-28-10l-71 44c1 3 2 6 2 10 0 16-14 30-31 30-16 0-30-14-30-30 0-4 1-8 3-12l-68-50c-7 7-16 11-26 11-4 0-9-1-13-3l-52 81c6 6 10 14 10 23 0 18-15 32-33 32-18 0-33-14-33-32 0-18 15-33 33-33z"/>
<glyph glyph-name="chart-2" unicode="&#115;" d="M504 49l-455 0 0 455c0 4-4 8-8 8-5 0-8-4-8-8l0-69-25 0c-4 0-8-4-8-8 0-5 4-9 8-9l25 0 0-60-25 0c-4 0-8-4-8-8 0-5 4-9 8-9l25 0 0-60-25 0c-4 0-8-4-8-9 0-4 4-8 8-8l25 0 0-61-25 0c-4 0-8-3-8-8 0-4 4-8 8-8l25 0 0-61-25 0c-4 0-8-3-8-8 0-4 4-8 8-8l25 0 0-69c0-5 3-8 8-8l121 0 0-25c0-4 3-8 8-8 4 0 8 4 8 8l0 25 189 0 0-25c0-4 3-8 8-8 4 0 8 4 8 8l0 25 121 0c4 0 8 3 8 8 0 4-4 8-8 8z m-420 16c5 0 9 4 9 9l0 190 69 0 0-190c0-5 3-9 8-9 4 0 8 4 8 9l0 113 64 0 0-113c0-5 4-9 9-9 4 0 8 4 8 9l0 121c0 5-4 8-8 8l-73 0 0 69c0 5-4 9-8 9l-86 0c-4 0-8-4-8-9l0-198c0-5 4-9 8-9z m210 0c5 0 8 4 8 9l0 344 65 0 0-344c0-5 3-9 8-9 4 0 8 4 8 9l0 267 69 0 0-267c0-5 4-9 8-9 5 0 8 4 8 9l0 276c0 4-3 8-8 8l-77 0 0 69c0 4-4 8-8 8l-81 0c-4 0-8-4-8-8l0-353c0-5 4-9 8-9z"/>
<glyph glyph-name="child-2" unicode="&#117;" d="M65 203c22-60 73-105 133-123 11-21 33-35 58-35 25 0 46 14 57 35 61 18 112 63 133 123 36 1 66 30 66 66 0 37-30 66-66 67-24 67-85 117-157 129-1 0-2 0-4 0 0 0-1 0-2 1-9 1-18 1-27 1-85 0-162-53-191-131-36-1-65-30-65-67 0-36 29-65 65-66z m151-38c0 7 16 18 40 18 24 0 40-11 40-18 0-1-1-2-2-4-11 8-24 13-38 13-15 0-28-5-39-13 0 2-1 3-1 4z m53-93c-4-1-9-2-13-2-5 0-9 1-13 2-13 4-23 15-26 29-1 2-1 5-1 9 0 7 2 13 5 19 6 10 15 17 26 19 3 1 6 1 9 1 3 0 6 0 9-1 11-2 20-9 25-19 4-6 6-12 6-19 0-4-1-7-1-9-3-14-13-25-26-29z m-203 239c2 0 4 0 6-1l11-1 3 10c15 49 52 89 98 109-10-23 4-52 28-63 29-13 76-15 96 15 9 13 1 30-10 40-15 13-37 14-55 7-15-6-8-30 7-24 10 5 20 5 30-1 15-8 2-16-8-19-19-6-46-1-61 12-18 16 6 35 20 40 16 5 33 6 50 6 67-10 125-57 145-122l3-10 10 1c3 1 5 1 7 1 22 0 41-19 41-42 0-22-19-41-41-41-2 0-4 0-7 1l-10 1-3-10c-16-52-56-92-106-112 0 1 1 1 1 2 0 12-4 23-10 33 6 6 10 14 10 22 0 24-29 43-65 43-36 0-65-19-65-43 0-8 4-16 10-22-6-10-10-21-10-33 0-1 0-1 0-2-49 20-89 60-105 112l-3 10-11-1c-2-1-4-1-6-1-23 0-41 19-41 41 0 23 18 42 41 42z m138-66c21 0 21 33 0 33-22 0-22-33 0-33z m104 2c21 0 21 33 0 33-21 0-21-33 0-33z"/>
<glyph glyph-name="cistern" unicode="&#118;" d="M512 360c0 25-9 50-26 68-3 4-9 4-12 1-3-3-3-8 0-12 14-15 22-36 22-57 0-47-39-86-86-86l-190 0 0 172 190 0c16 0 32-5 45-13 4-2 9-1 11 3 2 3 1 8-3 11-16 10-34 15-53 15l-35 0 0 10c0 11-9 21-21 21l-26 0c-11 0-21-10-21-21l0-10-87 0 0 10c0 11-10 21-21 21l-75 0c-12 0-21-10-21-21l0-10-1 0c-56 0-102-46-102-102 0-46 31-85 73-98l0-19c-11-1-19-10-19-21l0-4c0-11 8-20 18-21l0-156c0-12 10-22 22-22l3 0c12 0 22 10 22 22l0 93c0 5-4 8-8 8-5 0-8-3-8-8l0-93c0-3-3-5-6-5l-3 0c-3 0-5 2-5 5l0 156 14 0 0-36c0-4 3-8 8-8 4 0 8 4 8 8l0 36 212 0c4 0 8 3 8 8 0 4-4 8-8 8l-256 0c-3 0-5 2-5 5l0 4c0 3 2 5 5 5l362 0c3 0 5-2 5-5l0-4c0-3-2-5-5-5l-79 0c-4 0-8-4-8-8 0-5 4-8 8-8l34 0 0-156c0-12 9-22 21-22l4 0c11 0 21 10 21 22l0 156c11 0 20 10 20 21l0 4c0 11-8 20-19 21l0 19c42 13 73 52 73 98z m-189 112c0 2 3 4 5 4l26 0c3 0 5-2 5-4l0-10-36 0z m-220-229l-14 0 0 15 14 0z m0 31l-1 0c-47 0-86 39-86 86 0 47 39 86 86 86l1 0z m101-31l-85 0 0 15 85 0z m0 31l-85 0 0 24 85 0z m0 40l-85 0 0 19 85 0z m0 35l-85 0 0 19 85 0z m0 35l-85 0 0 22 85 0z m0 39l-85 0 0 23 85 0z m0 39l-85 0 0 10c0 2 2 4 5 4l75 0c2 0 5-2 5-4z m219-219l-203 0 0 15 203 0z m-1-202c0-3-2-5-5-5l-4 0c-3 0-5 2-5 5l0 156 14 0z m-166 365l59 0c5 0 8 4 8 8 0 5-3 9-8 9l-59 0c-4 0-8-4-8-9 0-4 4-8 8-8z m111-11l-111 0c-4 0-8-3-8-8 0-4 4-8 8-8l111 0c4 0 8 4 8 8 0 5-4 8-8 8z m0-27l-111 0c-4 0-8-4-8-8 0-5 4-8 8-8l111 0c4 0 8 3 8 8 0 4-4 8-8 8z"/>
<glyph glyph-name="clock" unicode="&#119;" d="M256 0c-141 0-256 115-256 256 0 141 115 256 256 256 141 0 256-115 256-256 0-141-115-256-256-256z m0 496c-133 0-240-107-240-240 0-133 107-240 240-240 133 0 240 107 240 240 0 133-107 240-240 240z m0-248l-99 0c-4 0-8 4-8 8 0 4 4 8 8 8l91 0 0 141c0 5 4 8 8 8 4 0 8-3 8-8l0-149c0-4-4-8-8-8z"/>
<glyph glyph-name="cloudy-day" unicode="&#120;" d="M264 137c-6 0-11-5-11-11l0-32c0-6 5-11 11-11 6 0 12 5 12 11l0 32c0 6-6 11-12 11z m0 221c6 0 12 5 12 11l0 32c0 7-6 12-12 12-6 0-11-5-11-12l0-32c0-6 5-11 11-11z m111-110c0-6 5-12 11-12l32 0c6 0 11 6 11 12 0 6-5 11-11 11l-32 0c-6 0-11-5-11-11z m-221 0c0 6-5 11-11 11l-32 0c-7 0-12-5-12-11 0-6 5-12 12-12l32 0c6 0 11 6 11 12z m196 75c3 0 6 1 8 3l23 22c4 5 4 12 0 16-5 5-12 5-16 0l-23-22c-4-5-4-12 0-16 3-2 5-3 8-3z m-180-153l-22-23c-5-4-5-11 0-16 2-2 5-3 8-3 2 0 5 1 8 3l22 23c5 4 5 11 0 16-4 4-11 4-16 0z m182 78c0 48-39 87-88 87-48 0-87-39-87-87 0-49 39-88 87-88 49 0 88 39 88 88z m-153 0c0 36 29 65 65 65 36 0 65-29 65-65 0-36-29-65-65-65-36 0-65 29-65 65z m260-80c-10 19-30 32-52 32-31 0-56-24-58-53-20-4-35-21-35-42 0-23 19-42 43-42l102 0c29 0 53 23 53 52 0 29-24 52-53 53z m0-83l-102 0c-11 0-21 9-21 20 0 11 10 20 21 20 1 0 1 0 2 0 4-1 7 1 10 3 2 3 3 6 3 10 0 1-1 3-1 5 0 19 16 34 36 34 15 0 29-10 34-25 1-5 7-8 12-7 2 0 4 0 6 0 17 0 30-13 30-30 0-16-13-30-30-30z m-261 280c0 29-24 52-53 52-10 19-30 32-52 32-31 0-56-23-58-53-20-3-35-21-35-41 0-24 19-43 43-43l102 0c29 0 53 24 53 53z m-175-10c0 11 9 20 20 20 1 0 1 0 2-1 4 0 7 1 10 4 2 2 3 6 3 9 0 2 0 4 0 5 0 19 15 35 35 35 16 0 30-10 34-25 2-5 7-9 13-8 1 1 3 1 5 1 17 0 31-14 31-30 0-17-14-30-31-30l-102 0c-11 0-20 9-20 20z"/>
<glyph glyph-name="cloudy-day-1" unicode="&#121;" d="M448 280c0-9 7-16 16-16l32 0c9 0 16 7 16 16 0 9-7 16-16 16l-32 0c-9 0-16-7-16-16z m-7-35c-2 7-6 14-10 20 1 5 1 10 1 15 0 53-43 96-96 96-25 0-47-9-64-24-23 15-50 24-80 24-78 0-142-63-144-141-29-16-48-48-48-83 0-53 43-96 96-96l320 0c53 0 96 43 96 96 0 44-30 81-71 93z m-105 99c29 0 54-20 62-47-16 10-34 15-54 15-10 0-20-1-30-4-5 8-11 16-17 23 11 8 24 13 39 13z m80-256l-320 0c-35 0-64 29-64 64 0 30 21 56 49 62-1 6-1 12-1 18 0 62 50 112 112 112 51 0 93-34 107-80 12 10 28 16 45 16 37 0 68-28 72-64l0 0c35 0 64-29 64-64 0-35-29-64-64-64z m22 271l22 23c7 6 7 16 0 22-6 7-16 7-22 0l-23-22c-6-6-6-17 0-23 6-6 17-6 23 0z m-102 33c9 0 16 7 16 16l0 32c0 9-7 16-16 16-9 0-16-7-16-16l0-32c0-9 7-16 16-16z"/>
<glyph glyph-name="cold-temperature" unicode="&#122;" d="M232 214c-1 1-3 2-3 4l0 234c0 33-27 60-60 60-33 0-60-27-60-60l0-234c0-2-2-3-3-4-33-21-53-58-53-98 0-64 52-116 116-116 64 0 116 52 116 116 0 40-20 77-53 98z m-63-193c-53 0-95 43-95 95 0 36 19 68 50 84l2 1c0 0 4 2 4 9 0 60 0 242 0 242 0 21 17 39 39 39 21 0 39-18 39-39 0 0 0-182 0-242 0-7 4-9 4-9l2-1c31-16 50-48 50-84 0-52-43-95-95-95z m19 140c-1 0-4 1-4 5l0 72c0 8-7 15-15 15-9 0-16-7-16-15l0-72c0-4-2-5-3-5-20-8-34-27-34-50 0-29 24-53 53-53 29 0 53 24 53 53 0 23-14 42-34 50z m142 287l84 0c4 0 8 3 8 8 0 5-4 9-8 9l-84 0c-5 0-8-4-8-9 0-5 3-8 8-8z m0-55l112 0c4 0 8 4 8 8 0 5-4 9-8 9l-112 0c-5 0-8-4-8-9 0-4 3-8 8-8z m0-55l84 0c4 0 8 4 8 9 0 4-4 8-8 8l-84 0c-5 0-8-4-8-8 0-5 3-9 8-9z m112-54c4 0 8 3 8 8 0 5-4 9-8 9l-112 0c-5 0-8-4-8-9 0-5 3-8 8-8z m-112-197l49-64c4-4 9-7 14-7 5 0 10 3 14 7l49 64c4 5 4 10 2 15-2 5-7 7-13 7l-12 0c-2 0-3 2-3 3l0 70c0 11-9 20-20 20l-32 0c-11 0-19-9-19-20l0-70c0-1-2-3-3-3l-15 0c-6 0-11-2-13-7-3-5-2-10 2-15z m19 5c2 0 7 0 7 0 11 0 19 9 19 20l0 70c0 1 2 3 3 3l32 0c2 0 3-2 3-3l0-70c0-11 9-20 20-20 0 0 3 0 4 0 2 0 1-1 1-1l-43-55c0 0-1-1-2-1-1 0-2 1-2 1l-43 55c0 0-1 1 1 1z"/>
<glyph glyph-name="color" unicode="&#65;" d="M494 190c-1 0-3 0-4-1-9-4-18-4-28 0-5 3-10 1-12-4-2-4 0-9 4-12 0 0 0 0 0 0 15-6 30-6 44 0 4 2 6 8 4 12-1 3-4 5-8 5z m-18-31c-18 0-36-15-36-39 0-16 10-27 16-33 7-7 11-10 11-20 0-4 2-8 6-9 0 0 0 0 0 0 0 0 0 0 0 0 4-2 8 0 11 3 6 7 10 12 12 18 2 6 3 11 3 14 0 3-1 5 1 8 1 2 3 7 9 13 2 1 3 4 3 6 0 24-18 39-36 39z m0-18c8 0 17-4 18-18-5-6-9-11-11-16-2-5-2-11-2-14 0-3-1-5-1-7-4 6-8 10-11 13-7 7-11 11-11 21 0 16 9 21 18 21z m0 314c-5 0-9-4-9-8l-18-234c0-4 2-7 5-9 15-6 30-6 44 0 3 2 5 5 5 9l-18 234c0 4-4 8-9 8z m0-126l9-111c-6-1-12-1-17 0z m-216-136c-24 0-44-20-44-45 0-24 20-45 44-45 25 0 45 21 45 45 0 25-20 45-45 45z m0-18c15 0 27-12 27-27 0-15-12-27-27-27-15 0-26 12-26 27 0 15 11 27 26 27z m-125 36c-25 0-45-20-45-45 0-24 20-45 45-45 24 0 45 21 45 45 0 25-21 45-45 45z m0-18c15 0 27-12 27-27 0-15-12-27-27-27-15 0-27 12-27 27 0 15 12 27 27 27z m-54 108c-25 0-45-20-45-45 0-25 20-45 45-45 25 0 45 20 45 45 0 25-20 45-45 45z m0-18c15 0 27-12 27-27 0-15-12-27-27-27-15 0-27 12-27 27 0 15 12 27 27 27z m72 108c-25 0-45-20-45-45 0-25 20-45 45-45 24 0 45 20 45 45 0 25-21 45-45 45z m0-18c15 0 27-12 27-27 0-15-12-27-27-27-15 0-27 12-27 27 0 15 12 27 27 27z m107 18c-24 0-44-20-44-45 0-25 20-45 44-45 25 0 45 20 45 45 0 25-20 45-45 45z m0-18c15 0 27-12 27-27 0-15-12-27-27-27-15 0-26 12-26 27 0 15 11 27 26 27z m-52 90c-26 0-53-5-78-15-78-31-130-107-130-192 0-85 52-161 130-192 79-31 169-11 227 50 3 3 3 8 1 11l0 0c-43 66-30 111-12 152 9 20 20 40 24 59 5 20 3 42-13 61-34 43-91 66-149 66z m0-19c53 0 106-21 135-58 13-16 14-29 10-45-4-17-14-36-23-57-18-42-33-95 9-162-53-53-132-69-202-41-72 28-119 98-119 175 0 77 47 147 119 175 22 9 47 13 71 13z"/>
<glyph glyph-name="computer" unicode="&#66;" d="M128 432l-96 0c-18 0-32-14-32-32l0-352c0-18 14-32 32-32l96 0c18 0 32 14 32 32l0 352c0 18-14 32-32 32z m-80-320c-9 0-16 7-16 16 0 9 7 16 16 16 9 0 16-7 16-16 0-9-7-16-16-16z m80 192l-96 0 0 32 96 0z m0 64l-96 0 0 32 96 0z m208-288l0 32-96 0 0-32c-18 0-32-15-32-32l160 0c0 17-14 32-32 32z m144 416l-384 0c-18 0-32-14-32-32l416 0 0-256-288 0 0-64 288 0c18 0 32 14 32 32l0 288c0 18-14 32-32 32z m-192-336c-9 0-16 7-16 16 0 9 7 16 16 16 9 0 16-7 16-16 0-9-7-16-16-16z"/>
<glyph glyph-name="contact" unicode="&#67;" d="M245 249c33 0 40 27 40 49 0 23-18 41-40 41-22 0-41-18-41-41 0-22 11-49 41-49z m6-5l-12 0c-22 0-55-21-55-46 0-25-8-45 14-45l93 0c23 0 15 20 15 45 0 25-33 46-55 46z m5 268c-141 0-256-115-256-256 0-141 115-256 256-256 141 0 256 115 256 256 0 141-115 256-256 256z m104-371l0-17c0-10-8-18-18-18l-177 0c-19 0-35 16-35 35l0 223c0 20 16 36 35 36l177 0c10 0 18-8 18-18l0-18 0 0z m35 223l0-240c0-10-7-18-17-18l-5 0c3 5 5 11 5 18l0 258c0 6-2 12-5 18l5 0c10 0 17-8 17-18z"/>
<glyph glyph-name="door-close" unicode="&#68;" d="M0 490l0-468 35 0 0 86 11 0 0-86 203 0 0 422-203 0 0-58-11 0 0 68 442 0 0-68-10 0 0 58-204 0 0-422 204 0 0 86 10 0 0-86 35 0 0 468z m205-230c8 0 13-6 13-13 0-7-5-13-13-13-7 0-13 6-13 13 0 7 6 13 13 13z m-159 77l0-181-11 0 0 181z m261-103c-7 0-13 6-13 13 0 7 6 13 13 13 7 0 13-6 13-13 0-7-6-13-13-13z m160-78l0 181 10 0 0-181z"/>
<glyph glyph-name="door-open" unicode="&#69;" d="M0 490l0-468 35 0 0 86 12 0 0-86 146 32 0 356-146 32 0-56-12 0 0 68 442 0 0-68-13 0 0 56-146-32 0-356 146-32 0 86 13 0 0-86 35 0 0 468z m169-235c5 0 9-5 9-11 0-6-4-11-9-11-5 0-10 5-10 11 0 6 5 11 10 11z m-122 82l0-181-12 0 0 181z m296-104c-6 0-10 5-10 11 0 6 4 11 10 11 5 0 9-5 9-11 0-6-4-11-9-11z m134-77l-13 0 0 181 13 0z"/>
<glyph glyph-name="dryer" unicode="&#71;" d="M512 349c0 60-57 107-107 107-45 0-222-32-229-33-6-1-9-6-9-12l0-125c0-5 3-10 9-11 5-1 101-18 170-27l0-147c0-25 20-45 44-45 25 0 45 20 45 45l0 146c40 14 77 54 77 102z m-94-6c-10 0-16 4-18 6 2 2 8 5 18 5 10 0 16-3 18-5-2-2-8-6-18-6z m-41 6c0-13 11-23 28-27-4-20-10-40-20-56-40 4-110 15-157 23l0 120c47 8 117 19 156 23 10-17 17-36 20-56-16-4-27-14-27-27z m-188 53c4 1 10 2 16 3l0-112c-6 1-12 2-16 3z m223-301c0-12-9-22-22-22-12 0-22 10-22 22l0 144c16-2 29-3 37-3 3 0 5 0 7 0z m-2 164c9 17 15 36 17 56 19 3 31 14 31 28 0 14-12 25-31 27-3 20-9 40-17 57 37-3 79-39 79-84 0-45-42-81-79-84z m-287 119c-2 0-3 0-6 4-4 4-10 10-22 10-12 0-18-6-22-10-3-4-4-4-6-4-2 0-2 0-6 4-4 4-10 10-22 10-12 0-18-6-22-10-3-4-4-4-6-4-6 0-11-5-11-11 0-7 5-12 11-12 12 0 18 7 22 11 4 3 4 4 6 4 2 0 3-1 6-4 4-4 10-11 22-11 12 0 18 7 22 11 3 3 4 4 6 4 2 0 2-1 6-4 4-4 10-11 22-11 6 0 11 5 11 12 0 6-5 11-11 11z m0-62c-2 0-3 0-6 4-4 4-10 10-22 10-12 0-18-6-22-10-3-4-4-4-6-4-2 0-2 0-6 4-4 4-10 10-22 10-12 0-18-6-22-10-3-4-4-4-6-4-6 0-11-5-11-11 0-7 5-12 11-12 12 0 18 7 22 11 4 3 4 4 6 4 2 0 3-1 6-4 4-4 10-11 22-11 12 0 18 7 22 11 3 3 4 4 6 4 2 0 2-1 6-4 4-4 10-11 22-11 6 0 11 5 11 12 0 6-5 11-11 11z"/>
<glyph glyph-name="energy" unicode="&#72;" d="M406 332c-2 3-6 5-11 5l-86 0 74 159c1 3 1 8-2 11-2 4-5 5-9 5l-128 0c-7 0-12-5-12-12 0-7 5-11 12-11l109 0-73-159c-1-3-1-8 1-11 3-4 6-5 10-5l82 0-164-245 35 161c1 4 0 7-2 10-3 3-6 4-10 4l-101 0 78 253c3 6-1 13-8 14-6 2-13-1-14-8l-81-268c-2-2-2-6 1-9 2-3 6-5 9-5l103 0-45-207c-1-6 1-11 7-13 1-1 4-1 5-1 3 0 7 2 9 5l210 314c2 4 3 8 1 13z m-193 74c-6 2-13-1-14-7l-35-105c-3-5 1-12 7-15 1 0 2-1 3-1 5 0 10 4 11 8l35 105c2 6-1 13-7 15z"/>
<glyph glyph-name="eye" unicode="&#73;" d="M256 416c-112 0-208-65-256-160 48-95 144-160 256-160 112 0 208 65 256 160-48 95-144 160-256 160z m126-85c30-19 56-45 75-75-19-30-45-56-75-75-38-24-81-37-126-37-45 0-88 13-126 37-30 19-56 45-75 75 19 30 45 56 75 75 2 1 4 3 6 4-5-14-8-29-8-44 0-71 57-128 128-128 71 0 128 57 128 128 0 15-3 30-8 44 2-1 4-3 6-4z m-126-27c0-27-21-48-48-48-27 0-48 21-48 48 0 27 21 48 48 48 27 0 48-21 48-48z"/>
<glyph glyph-name="eye-blocked" unicode="&#74;" d="M473 505c-9 9-25 9-34 0l-101-101c-26 8-54 12-82 12-112 0-208-65-256-160 21-41 50-77 87-104l-80-79c-9-9-9-25 0-34 5-5 11-7 17-7 6 0 12 2 17 7l432 432c9 9 9 25 0 34z m-265-153c21 0 39-14 45-33l-60-60c-19 6-33 24-33 45 0 27 21 48 48 48z m-153-96c19 30 45 56 75 75 2 1 4 3 6 4-5-14-8-29-8-44 0-27 9-53 23-74l-30-30c-26 18-49 42-66 69z m329 35c0 14-2 27-6 39l-161-161c12-4 25-6 39-6 71 0 128 57 128 128z m31 76l-35-35c1 0 2 0 2-1 30-19 56-45 75-75-19-30-45-56-75-75-38-24-81-37-126-37-19 0-38 2-57 7l-38-38c29-11 62-17 95-17 112 0 208 65 256 160-23 45-56 83-97 111z"/>
<glyph glyph-name="eye-minus" unicode="&#75;" d="M320 448l192 0 0-64-192 0z m115-96l-147 0 0 62c-11 1-21 2-32 2-112 0-208-65-256-160 48-95 144-160 256-160 112 0 208 65 256 160-19 37-45 70-77 96z m-227 0c27 0 48-21 48-48 0-27-21-48-48-48-27 0-48 21-48 48 0 27 21 48 48 48z m174-171c-38-24-81-37-126-37-45 0-88 13-126 37-30 19-56 45-75 75 19 30 45 56 75 75 2 1 4 3 6 4-5-14-8-29-8-44 0-71 57-128 128-128 71 0 128 57 128 128 0 15-3 30-8 44 2-1 4-3 6-4 30-19 56-45 75-75-19-30-45-56-75-75z"/>
<glyph glyph-name="eye-plus" unicode="&#76;" d="M512 448l-64 0 0 64-64 0 0-64-64 0 0-64 64 0 0-64 64 0 0 64 64 0z m-80-159c9-10 18-21 25-33-19-30-45-56-75-75-38-24-81-37-126-37-45 0-88 13-126 37-30 19-56 45-75 75 19 30 45 56 75 75 2 1 4 3 6 4-5-14-8-29-8-44 0-71 57-128 128-128 71 0 128 57 128 128 0 0 0 1 0 1-55 14-95 63-96 122-10 1-21 2-32 2-112 0-208-65-256-160 48-95 144-160 256-160 112 0 208 65 256 160-9 18-19 34-31 50-15-9-31-15-49-17z m-224 63c27 0 48-21 48-48 0-27-21-48-48-48-27 0-48 21-48 48 0 27 21 48 48 48z"/>
<glyph glyph-name="family" unicode="&#77;" d="M265 222c-31 0-52-21-52-51l0-9c0-41 24-68 60-68 36 0 60 27 60 68l0 9c0 30-21 51-51 51z m51-51l0-9c0-15-4-51-43-51-38 0-43 36-43 51l0 9c0 20 14 34 35 34l17 0c20 0 34-14 34-34z m-60 0l0 0c-5 0-8-4-8-9 0-5 4-8 8-8 5 0 9 3 9 8 0 5-4 9-9 9z m42 111c5-1 9 3 9 7l9 111c2 21 29 44 51 44l17 0c22 0 50-23 51-44l9-111c0-4 4-7 8-7 0 0 1 0 1 0 5 0 8 4 8 9l-9 111c-2 31-40 59-68 59l-17 0c-31 0-66-30-68-59l-9-111c0-5 3-9 8-9z m77 122c-1 3-4 6-8 6-4 0-7-3-8-6-7-19-25-20-26-20-5 0-9-4-9-9l0-34c0-28 20-68 51-68 32 0 52 40 52 68l0 34c0 5-4 9-9 9 0 0-37 1-43 20z m35-63c0-23-16-51-35-51-18 0-34 28-34 51l0 27c9 2 19 7 27 16 12-12 31-15 42-17z m-239 52l8 0c5 0 9 3 9 8 0 5-4 9-9 9l-8 0c-5 0-9-4-9-9 0-5 4-8 9-8z m119-239c5 0 9 3 9 8 0 5-4 9-9 9l0 0c-4 0-8-4-8-9 0-5 4-8 8-8z m-204 224c1-17 8-31 9-32 7-15 19-39 59-39 39 0 51 24 58 39 1 1 8 15 10 32 5 2 8 8 8 15l0 17c0 6-3 11-8 14l0 3c0 28-23 51-51 51l-34 0c-29 0-52-23-52-51l0-3c-5-3-8-8-8-14l0-17c0-7 3-13 9-15z m8 32c5 0 8 3 8 8l0 9c0 18 16 34 35 34l34 0c18 0 34-16 34-34l0-9c0-5 4-8 8-8l0-17c-4 0-8-4-8-9 0-15-8-30-8-30-9-18-17-30-43-30-27 0-35 12-44 30 0 0-8 15-8 30 0 5-3 9-8 9z m205-325c-2 0-4 0-5-1l-21-14-21 14c-1 1-3 1-5 1-49 0-59-23-59-42 0-5 4-9 8-9 5 0 9 4 9 9 0 7 0 25 40 25l23-15c3-2 7-2 10 0l23 15c40 0 40-18 40-25 0-5 4-9 9-9 5 0 8 4 8 9 0 19-10 42-59 42z m154 103l0 0c-5 0-9-4-9-9l0-136c0-5 4-9 8-9l0 0c5 0 9 4 9 9l0 136c0 5-3 9-8 9z m-325 205l9 0c4 0 8 3 8 8 0 5-4 9-8 9l-9 0c-5 0-9-4-9-9 0-5 4-8 9-8z m68-156l7 36c43-1 74-12 84-29 2-4 7-6 11-4 5 3 6 8 4 12-14 24-51 38-105 38-4 0-8-3-9-7l-9-42c-1-5 2-10 7-10 1-1 1-1 2-1 4 0 7 3 8 7z m295 10c-17 17-42 26-73 26-5 0-8-4-8-9 0-1-1-42-35-42-33 0-34 41-34 42 0 5-3 9-8 9-5 0-9-4-9-9 0-19 9-53 43-59l0-43c0-5 4-8 8-8 5 0 9 3 9 8l0 43c29 5 40 31 42 51 23-2 41-9 53-21 10-10 16-24 16-39l0-136c0-5 4-9 8-9 5 0 9 4 9 9l0 136c0 20-7 38-21 51z m-337 43c-10 0-17-8-17-17 0-6 3-12 8-15l0-62c0-4 4-8 9-8 4 0 8 4 8 8l0 62c5 3 9 9 9 15 0 9-8 17-17 17z m-94-102c-5 0-9-4-9-9l0-136c0-5 4-9 9-9 4 0 8 4 8 9l0 136c0 5-4 9-8 9z m59 95c-1 4-5 7-9 7-44 0-79-10-96-27-9-9-14-20-14-33l0-170c0-5 4-9 9-9 4 0 8 4 8 9l0 170c0 8 3 15 9 21 13 13 41 21 78 22l41-198c1-5 6-8 10-7 5 1 8 6 7 11z"/>
<glyph glyph-name="fire-1" unicode="&#78;" d="M160 0c-34 71-15 112 11 150 28 42 36 84 36 84 0 0 22-30 13-76 40 45 48 115 42 143 90-63 129-200 77-301 276 156 68 390 32 416 12-26 15-70-10-92-41 156-143 188-143 188 12-81-43-169-97-234-2 32-4 54-21 85-4-59-48-106-60-165-17-79 12-137 121-198z"/>
<glyph glyph-name="folder" unicode="&#79;" d="M509 312c-2 2-5 4-8 4l-22 0 0 121c0 9-7 16-16 16l-262 0-21 35c-3 4-8 7-13 7l-118 0c-8 0-15-6-15-15l0-164-23 0c-3 0-6-2-8-4-2-2-3-6-3-9l42-277c1-5 5-9 11-9l406 0c6 0 10 4 11 9l42 277c0 3-1 7-3 9z m-458 166l115 0 21-35c3-5 8-8 13-8l261 0 0-119-8 0 0 34-9 0 0 26-8 0 0 25-359 0 0-25-9 0 0-26-8 0 0-34-9 0z m26-145l359 0 0-17-359 0z m8 26l342 0 0-9-342 0z m334 17l-325 0 0 8 325 0z m35-342l-396 0-40 265 476 0z m-224 43l180 0 0 119-180 0z m17 102l146 0 0-85-146 0z m26-34l34 0c5 0 9 4 9 8 0 5-4 9-9 9l-34 0c-5 0-8-4-8-9 0-4 3-8 8-8z m68 0l9 0c5 0 9 4 9 8 0 5-4 9-9 9l-9 0c-4 0-8-4-8-9 0-4 4-8 8-8z m26-17l-94 0c-5 0-8-4-8-9 0-4 3-8 8-8l94 0c5 0 9 4 9 8 0 5-4 9-9 9z"/>
<glyph glyph-name="garage-down" unicode="&#81;" d="M504 249l-138 86c0 0 0 0 0 0-5 3-10 1-12-3-9-18-23-32-40-43-2-1-4-2-6-3-54-29-121-8-150 46 0 0 0 0 0 0-3 4-8 6-12 3l-138-86c-5-3-8-9-8-15l0-21c0-9 8-17 17-17l9 0 0-179c0-9 7-17 17-17l17 0c9 0 17 8 17 17l0 205 358 0 0-205c0-9 8-17 17-17l17 0c10 0 17 8 17 17l0 179 9 0c9 0 17 8 17 17l0 21c0 6-3 12-8 15z m-9-36l-9 0c-9 0-17-7-17-17l0-179-17 0 0 205c0 9-7 17-17 17l-358 0c-10 0-17-8-17-17l0-205-17 0 0 179c0 10-8 17-17 17l-9 0 0 21 131 82c10-17 24-31 41-41 41-26 93-26 134 0 17 10 31 24 41 41l131-82z m-239 299c-71 0-128-57-128-128 0-21 5-41 15-60 11-20 26-37 46-49 20-12 43-19 67-19 24 0 47 7 67 19 20 12 35 29 46 49 10 19 15 39 15 60 0 71-57 128-128 128z m98-180c-9-18-23-32-40-43-2-1-4-2-6-3-54-29-121-8-150 46-9 16-13 34-13 52 0 61 50 111 111 111 61 0 111-50 111-111 0-18-4-36-13-52z m90-127l-299 0c-5 0-8-4-8-9 0-4 3-8 8-8l299 0c4 0 8 4 8 8 0 5-4 9-8 9z m-333 0l-43 0c-4 0-8-4-8-9 0-4 4-8 8-8l43 0c5 0 8 4 8 8 0 5-3 9-8 9z m333-34l-299 0c-5 0-8-4-8-9 0-5 3-8 8-8l299 0c4 0 8 3 8 8 0 5-4 9-8 9z m-333 0l-43 0c-4 0-8-4-8-9 0-5 4-8 8-8l43 0c5 0 8 3 8 8 0 5-3 9-8 9z m196 213l-17 0 0 68c0 10-8 17-17 17l-34 0c-9 0-17-7-17-17l0-68-17 0c-5 0-9-2-12-5-7-7-7-18 0-24l51-51c3-4 7-5 12-5 5 0 9 1 12 5l51 51c3 3 5 7 5 12 0 9-7 17-17 17z m-51-68l-51 51 17 0c9 0 17 8 17 17l0 68 34 0 0-68c0-9 8-17 17-17l17 0z"/>
<glyph glyph-name="garage-up" unicode="&#82;" d="M504 249l-138 86c0 0 0 0 0 0-5 3-10 1-12-3-9-18-23-32-40-43-2-1-4-2-6-3-54-29-121-8-150 46 0 0 0 0 0 0-3 4-8 6-12 3l-138-86c-5-3-8-9-8-15l0-21c0-9 8-17 17-17l9 0 0-179c0-9 7-17 17-17l17 0c9 0 17 8 17 17l0 205 358 0 0-205c0-9 8-17 17-17l17 0c10 0 17 8 17 17l0 179 9 0c9 0 17 8 17 17l0 21c0 6-3 12-8 15z m-9-36l-9 0c-9 0-17-7-17-17l0-179-17 0 0 205c0 9-7 17-17 17l-358 0c-10 0-17-8-17-17l0-205-17 0 0 179c0 10-8 17-17 17l-9 0 0 21 131 82c10-17 24-31 41-41 41-26 93-26 134 0 17 10 31 24 41 41l131-82z m-239 299c-71 0-128-57-128-128 0-21 5-41 15-60 11-20 26-37 46-49 20-12 43-19 67-19 24 0 47 7 67 19 20 12 35 29 46 49 10 19 15 39 15 60 0 71-57 128-128 128z m98-180c-9-18-23-32-40-43-2-1-4-2-6-3-54-29-121-8-150 46-9 16-13 34-13 52 0 61 50 111 111 111 61 0 111-50 111-111 0-18-4-36-13-52z m90-127l-299 0c-5 0-8-4-8-9 0-4 3-8 8-8l299 0c4 0 8 4 8 8 0 5-4 9-8 9z m-333 0l-43 0c-4 0-8-4-8-9 0-4 4-8 8-8l43 0c5 0 8 4 8 8 0 5-3 9-8 9z m333-34l-299 0c-5 0-8-4-8-9 0-5 3-8 8-8l299 0c4 0 8 3 8 8 0 5-4 9-8 9z m-333 0l-43 0c-4 0-8-4-8-9 0-5 4-8 8-8l43 0c5 0 8 3 8 8 0 5-3 9-8 9z m333-34l-299 0c-5 0-8-4-8-9 0-5 3-9 8-9l299 0c4 0 8 4 8 9 0 5-4 9-8 9z m-333 0l-43 0c-4 0-8-4-8-9 0-5 4-9 8-9l43 0c5 0 8 4 8 9 0 5-3 9-8 9z m333-35l-299 0c-5 0-8-3-8-8 0-5 3-9 8-9l299 0c4 0 8 4 8 9 0 5-4 8-8 8z m-333 0l-43 0c-4 0-8-3-8-8 0-5 4-9 8-9l43 0c5 0 8 4 8 9 0 5-3 8-8 8z m333-34l-299 0c-5 0-8-4-8-8 0-5 3-9 8-9l299 0c4 0 8 4 8 9 0 4-4 8-8 8z m-333 0l-43 0c-4 0-8-4-8-8 0-5 4-9 8-9l43 0c5 0 8 4 8 9 0 4-3 8-8 8z m208 345l-51 51c0 0 0 0 0 0-7 7-17 7-24 0l-51-51c-3-3-5-7-5-12 0-9 7-17 17-17l17 0 0-68c0-10 8-17 17-17l34 0c9 0 17 7 17 17l0 68 17 0c5 0 9 2 12 5 7 7 7 17 0 24z m-29-12c-9 0-17-8-17-17l0-68-34 0 0 68c0 9-8 17-17 17l-17 0 51 51 51-51z"/>
<glyph glyph-name="grass" unicode="&#83;" d="M502 96l-88 0c5 119 83 220 84 221 3 4 3 9 0 13-4 4-9 4-13 2-64-40-101-104-121-151-3-8-7-17-9-25 2 45 10 104 38 156 2 4 1 9-2 12-4 3-9 3-13 1-20-13-37-31-51-52 5 64 34 149 34 150 1 4 0 9-4 11-4 3-9 3-12 0-26-22-47-57-63-104-8-24-13-47-17-67-17 33-39 59-67 78-4 2-9 2-12-1-4-3-5-8-3-12 31-58 39-123 41-171-3 9-7 20-11 30-21 50-61 119-129 161-4 3-10 2-13-2-3-3-3-9 0-13 1-1 65-84 85-192-5 10-11 21-18 32-34 59-71 97-111 114-4 2-9 1-11-3-3-3-3-8-1-12 24-34 84-128 86-176l-91 0c-5 0-10-5-10-10 0-6 5-10 10-10l492 0c5 0 10 4 10 10 0 5-5 10-10 10z m-119 78c13 31 34 69 65 102-3-6-6-12-10-18-19-39-41-97-44-162l-35 0c3 15 10 45 24 78z m-26 105c-15-42-20-84-22-116-2-30-1-54 1-67l-35 0c1 30 5 71 17 110 10 29 22 53 39 73z m-29 103c-12-43-26-106-20-147-3-7-6-15-9-23-3-9-5-18-7-27-3 12-6 24-10 36 0 2-1 4-2 6 5 35 17 105 48 155z m-109-87c19-21 34-48 44-80 14-43 18-87 18-119l-38 0c1 14 3 40 1 73-2 34-8 80-25 126z m-98-2c35-36 59-79 73-113 15-36 23-68 26-84l-39 0c-3 69-27 132-48 173-4 9-8 17-12 24z m-42-84c-7 12-14 24-20 34 49-44 83-118 95-147l-32 0c-2 26-16 64-43 113z"/>
<glyph glyph-name="greenhouse" unicode="&#84;" d="M507 345l-248 111c-1 1-4 1-6 0l-248-111c-3-1-5-4-5-8l0-273c0-5 3-8 9-8l494 0c6 0 9 3 9 8l0 273c0 4-2 6-5 8z m-456-272l0 17 410 0 0-17z m444 0l-17 0 0 25c0 5-4 9-9 9l-51 0 0 26c39 4 68 36 68 76 0 5-3 9-8 9-24 0-46-11-60-29l0 46c39 4 68 37 68 77 0 5-3 8-8 8-24 0-46-11-60-28l0 35c0 5-3 8-8 8-6 0-9-3-9-8l0-86c-14 17-35 28-60 28-5 0-8-4-8-9 0-39 29-72 68-76l0-77-136 0 0 26c38 4 68 36 68 76 0 5-4 9-9 9-24 0-45-11-59-29l0 46c38 4 68 37 68 77 0 5-4 8-9 8-24 0-45-11-59-28l0 35c0 5-4 8-9 8-5 0-9-3-9-8l0-86c-14 17-35 28-59 28-5 0-9-4-9-9 0-39 30-72 68-76l0-77-136 0 0 26c39 4 68 36 68 76 0 5-3 9-8 9-25 0-46-11-60-29l0 46c39 4 68 37 68 77 0 5-3 8-8 8-25 0-46-11-60-28l0 35c0 5-3 8-9 8-5 0-8-3-8-8l0-86c-14 17-36 28-60 28-5 0-8-4-8-9 0-39 29-72 68-76l0-77-51 0c-5 0-9-4-9-9l0-25-17 0 0 259 239 107 239-107z m-76 77c3 26 24 46 49 50-4-26-23-45-49-50z m0 103c3 25 24 45 49 49-4-25-23-45-49-49z m-19-52c-25 4-45 24-49 50 25-4 45-24 49-50z m-135-51c4 26 24 46 50 50-4-26-24-45-50-50z m0 103c4 25 24 45 50 49-4-25-24-45-50-49z m-18-52c-26 4-46 24-50 50 26-4 45-24 50-50z m-135-51c3 26 24 46 49 50-4-26-24-45-49-50z m0 103c3 25 24 45 49 49-4-25-24-45-49-49z m-19-52c-26 4-45 24-49 50 25-4 45-24 49-50z"/>
<glyph glyph-name="hanger" unicode="&#85;" d="M462 240l0-8-5 5-44-44-30 30 11 11-12 11-10-10-11 10-12-11 11-11-30-30-29 30 10 11-11 11-11-10-11 10-11-11 10-11-29-30-13 14-12-12 13-13-31-32-5 68 13-13 11 12-20 20-5-5-1 8-16-1 0-8-143 0c-12 0-22 10-22 23 0 8 4 16 11 20l175 94c3 2 6 4 8 6l0-1 165-90 8 15-160 86 6 4c22 19 34 46 34 74 0 28-22 50-49 50-23 0-42-19-42-41 0-23 19-42 42-42l8 0 0 17-8 0c-14 0-25 11-25 25 0 13 11 24 25 24 18 0 33-14 33-33 0-23-11-46-29-61l-11-9c-4-4-9-7-13-9l-174-94c-13-7-21-21-21-35 0-22 18-39 39-39l144 0 12-161c2-30 27-54 58-54l155 0c30 0 56 24 58 54l13 185z m-1-22l-5-68-31 32z m-32-123l25 25-3-47z m-12 12l-34 33 30 30 34-34z m-45 104l29-29-29-30-30 30z m-42-191l-33 34 33 33 34-33z m46 22l25-25-51 0z m-66-25l-51 0 26 25z m-25 48l-30 30 34 34 30-30z m16 75l29 30 30-30-30-29z m-12 71l30-29-30-30-30 30z m-12-71l-33-33-30 29 34 34z m-67-67l-3 47 25-25z m2-22l32 32 29-29-34-35c-14 5-25 17-27 32z m210-32l-35 35 10 9-12 12-9-10-34 34 30 30 33-34-10-10 12-12 10 10 32-32c-3-15-13-27-27-32z m57 212l-297 0c-19 0-33 15-33 33 0 18 14 33 33 33l297 0c18 0 33-15 33-33 0-18-15-33-33-33z"/>
<glyph glyph-name="hanger-1" unicode="&#86;" d="M492 163l-225 119 0 15c0 0 0 0 0 0 35 9 59 31 59 60 0 32-26 59-59 59-30 0-57-22-59-52 0 0 0-1 0-1 0 0 0 0 0 0 0-6 4-11 10-11 6 0 11 5 11 11l0 0c1 9 5 16 9 20 8 7 18 12 29 12 21 0 38-17 38-38 0-8-3-16-10-22-8-8-19-13-33-17 0 0-16-5-17-5l0-4 0 0 0-27-225-119c-12-6-20-18-20-31 0-20 18-36 40-36 1 0 1 0 1 0l430 0c0 0 0 0 1 0 22 0 40 16 40 36 0 13-8 25-20 31z m-20-46l-432 0c-10 0-19 7-19 15 0 5 4 10 9 12l0 0 0 1 226 119 226-119 0-1 0 0c5-2 9-7 9-12 0-8-9-15-19-15z"/>
<glyph glyph-name="heater-1" unicode="&#87;" d="M501 395c-6 0-10-5-10-11l0-85-22 0 0 21c0 24-19 43-42 43-13 0-24-6-32-15-8 9-20 15-32 15-13 0-24-6-32-15-8 9-20 15-32 15-13 0-24-6-32-15-8 9-20 15-32 15-13 0-25-6-32-15-8 9-20 15-32 15-13 0-25-6-32-15-8 9-20 15-32 15-20 0-37-14-42-32l-33 0c-6 0-11-5-11-11l0-21-10 0c-6 0-11-5-11-11 0-6 5-11 11-11l10 0 0-21c0-6 5-11 11-11l32 0 0-202c0-24 19-43 43-43 12 0 24 6 32 14 7-8 19-14 32-14 12 0 24 6 32 14 7-8 19-14 32-14 12 0 24 6 32 14 8-8 19-14 32-14 12 0 24 6 32 14 8-8 19-14 32-14 12 0 24 6 32 14 8-8 19-14 32-14 23 0 42 19 42 43l0 234 32 0c6 0 11 5 11 11l0 96c0 6-5 11-11 11z m-437-128l-21 0 0 42 21 0z m64-224c0-12-10-22-21-22-12 0-22 10-22 22l0 277c0 12 10 21 22 21 11 0 21-9 21-21z m64 0c0-12-10-22-21-22-12 0-22 10-22 22l0 277c0 12 10 21 22 21 11 0 21-9 21-21z m64 0c0-12-10-22-21-22-12 0-22 10-22 22l0 277c0 12 10 21 22 21 11 0 21-9 21-21z m64 0c0-12-10-22-21-22-12 0-22 10-22 22l0 277c0 12 10 21 22 21 11 0 21-9 21-21z m64 0c0-12-10-22-21-22-12 0-22 10-22 22l0 277c0 12 10 21 22 21 11 0 21-9 21-21z m64 0c0-12-10-22-21-22-12 0-22 10-22 22l0 277c0 12 10 21 22 21 11 0 21-9 21-21z m-91 365c-1 5-1 8 3 11 8 9 11 20 8 32-3 8-7 14-8 14 0 0 0 0 0 0l0 0c-2 3-5 4-8 4-6 0-11-4-11-10 0-3 1-5 3-7 0 0 2-3 3-7 1-4 1-7-3-11-8-8-11-20-8-32 3-8 7-13 8-14l0 0c2-2 5-4 8-4 6 0 11 5 11 11 0 2-1 5-3 6 0 0-2 3-3 7z m-88 7c-3 10-1 19 6 26 11 13 15 29 10 46-3 12-9 20-10 21l0 0c-2 2-5 4-8 4-6 0-11-5-11-11 0-2 1-4 2-6l0 0c0 0 5-6 7-14 2-10 0-19-6-26-12-13-15-29-11-46 3-12 9-20 10-21l0 0c2-2 5-4 9-4 6 0 10 5 10 11 0 2 0 4-2 6 0 0-4 6-6 14z m-79-14c0 0-3 3-4 7-1 5 0 8 3 11 9 9 11 20 8 32-2 8-7 14-7 14 0 0 0 0 0 0l0 0 0 0c-2 3-5 4-9 4-6 0-10-4-10-10 0-3 1-5 2-7 0 0 2-3 3-7 2-4 1-7-2-11-9-8-12-20-8-32 2-8 7-13 7-14l0 0c2-2 5-4 8-4 6 0 11 5 11 11 0 2-1 5-2 6z"/>
<glyph glyph-name="home" unicode="&#88;" d="M429 0l-112 0c-4 0-8 3-8 8l0 158-106 0 0-158c0-5-4-8-8-8l-112 0c-4 0-8 3-8 8l0 257-64 0c-3 0-6 2-7 5-1 3 0 7 2 9l245 231c3 3 7 3 10 0l245-231c2-2 3-6 2-9-1-3-4-5-7-5l-64 0 0-257c0-5-4-8-8-8z m-104 16l96 0 0 257c0 4 4 8 8 8l52 0-225 213-225-213 52 0c4 0 8-4 8-8l0-257 96 0 0 157c0 5 4 8 8 8l122 0c4 0 8-3 8-8z"/>
<glyph glyph-name="hot-thermometer" unicode="&#89;" d="M232 214c-1 1-3 2-3 4l0 234c0 33-27 60-60 60-33 0-60-27-60-60l0-234c0-2-2-3-3-4-33-21-53-58-53-98 0-64 52-116 116-116 64 0 116 52 116 116 0 40-20 77-53 98z m-63-193c-53 0-95 43-95 95 0 36 19 68 50 84l2 1c0 0 4 2 4 9 0 60 0 242 0 242 0 21 17 39 39 39 21 0 39-18 39-39 0 0 0-182 0-242 0-7 4-9 4-9l2-1c31-16 50-48 50-84 0-52-43-95-95-95z m19 140c-1 0-4 1-4 5l0 239c0 9-7 16-15 16-9 0-16-7-16-16l0-239c0-4-2-5-3-5-20-8-34-27-34-50 0-29 24-53 53-53 29 0 53 24 53 53 0 23-14 42-34 50z m142 287l84 0c4 0 8 3 8 8 0 5-4 9-8 9l-84 0c-5 0-8-4-8-9 0-5 3-8 8-8z m0-55l112 0c4 0 8 4 8 8 0 5-4 9-8 9l-112 0c-5 0-8-4-8-9 0-4 3-8 8-8z m0-55l84 0c4 0 8 4 8 9 0 4-4 8-8 8l-84 0c-5 0-8-4-8-8 0-5 3-9 8-9z m112-54c4 0 8 3 8 8 0 5-4 9-8 9l-112 0c-5 0-8-4-8-9 0-5 3-8 8-8z m14-153l-49 64c-4 4-9 7-14 7-5 0-10-3-14-7l-49-64c-4-5-5-11-2-15 2-5 7-8 13-8l12 0c1 0 3-1 3-2l0-70c0-11 9-20 20-20l32 0c11 0 19 9 19 20l0 70c0 1 2 2 3 2l15 0c6 0 11 3 13 8 2 4 2 10-2 15z m-19-6c-2 0-7 0-7 0-11 0-20-9-20-19l0-70c0-2-1-3-2-3l-32 0c-2 0-3 1-3 3l0 70c0 10-9 19-20 19 0 0-3 0-4 0-2 0-1 1-1 1l43 55c0 0 1 2 2 2 1 0 2-2 2-2l43-55c0 0 1-1-1-1z"/>
<glyph glyph-name="hotel-keycard" unicode="&#90;" d="M0 148c0-31 25-57 57-57l397 0c31 0 57 26 57 57l0 3-511 0z m191 167c0-8-6-15-14-15-8 0-15 7-15 15 0 8 7 14 15 14 8 0 14-6 14-14z m263 107l-397 0c-32 0-57-25-57-57l0-150 510 0 0 150c0 32-25 57-56 57z m-91-112l-15-21c-1-2-4-3-7-3l-89-1c-10-17-28-27-49-27-31-1-57 25-57 57 0 31 25 57 57 57 21 0 39-11 49-28l12 0c1 0 3-1 4-2 1-1 1-2 1-3l0 0c0-2 1-4 3-4 1-1 3-1 4 1l4 3c1 1 2 2 4 2 1 0 2-1 3-2l8-7c1-1 2-2 4-2 1 0 2 1 3 2l9 8c1 1 2 2 3 2 2 0 3-1 4-2l8-8c2-2 6-2 8 0l7 8c1 1 3 1 4 1 2 0 3-1 4-2l14-19c2-3 2-7 0-10z"/>
<glyph glyph-name="iconmonstr-error-8" unicode="&#33;" d="M344 469l125-125 0-176-125-125-176 0-125 125 0 176 125 125z m18 43l-212 0-150-150 0-212 150-150 212 0 150 150 0 212z m-181-362l75 76 76-75 30 30-76 75 76 76-31 31-75-77-77 74-30-30 77-74-75-76z"/>
<glyph glyph-name="iconmonstr-lock-10" unicode="&#35;" d="M384 299l0 85c0 71-57 128-128 128-71 0-128-57-128-128l0-85-64 0 0-299 384 0 0 299z m-213 85c0 47 38 85 85 85 47 0 85-38 85-85l0-85-170 0z m234-341l-298 0 0 213 298 0z m-165 42l-60 59 25 25 35-34 76 78 25-25z"/>
<glyph glyph-name="iconmonstr-lock-12" unicode="&#36;" d="M232 149l-40 39 24 24 40-39 39 40 24-24-39-40 40-39-24-24-40 39-39-40-24 24z m216 150l0-299-384 0 0 299 64 0 0 85c0 71 57 128 128 128 71 0 128-57 128-128l0-85z m-277 0l170 0 0 85c0 47-38 85-85 85-47 0-85-38-85-85z m234-43l-298 0 0-213 298 0z"/>
<glyph glyph-name="iconmonstr-shield-14" unicode="&#41;" d="M256 456c63-48 138-64 190-70-14-150-104-268-190-334-86 66-176 184-190 334 52 6 127 22 190 70z m0 56c-64-64-160-85-235-85 0-183 108-344 235-427 127 83 235 244 235 427-75 0-171 21-235 85z m85-293l-59 58 59 59-27 27-58-59-59 58-26-26 59-59-59-59 27-26 58 59 59-58z"/>
<glyph glyph-name="iconmonstr-video-2" unicode="&#58;" d="M0 491l0-470 512 0 0 470z m85-427l-42 0 0 43 42 0z m0 85l-42 0 0 43 42 0z m0 86l-42 0 0 42 42 0z m0 85l-42 0 0 43 42 0z m0 85l-42 0 0 43 42 0z m299-256l-256 0 0 214 256 0z m85-85l-42 0 0 43 42 0z m0 85l-42 0 0 43 42 0z m0 86l-42 0 0 42 42 0z m0 85l-42 0 0 43 42 0z m0 85l-42 0 0 43 42 0z m-256-213l0 128 107-64z"/>
<glyph glyph-name="information" unicode="&#59;" d="M256 512c-141 0-256-115-256-256 0-141 115-256 256-256 141 0 256 115 256 256 0 141-115 256-256 256z m0-487c-127 0-231 103-231 231 0 127 104 231 231 231 128 0 231-104 231-231 0-128-103-231-231-231z m74 91l0-34c0-1-1-2-3-2l-124 0c-2 0-3 1-3 2l0 34c0 2 1 3 3 3l36 0 0 181-37 0c-1 0-2 1-2 2l0 35c0 1 1 2 2 2l85 0c2 0 3-1 3-2l0-218 37 0c2 0 3-1 3-3z m-113 287c0 21 17 39 39 39 21 0 39-18 39-39 0-22-18-39-39-39-22 0-39 17-39 39z"/>
<glyph glyph-name="key" unicode="&#60;" d="M335 512c-95 0-173-78-173-173 0-21 4-42 11-61l-165-166c-3-2-4-6-4-9l0-90c0-7 6-13 13-13l74 0c4 0 7 1 9 4l25 25c3 2 4 5 4 9l0 31 31 0c7 0 12 5 12 12l0 13 13 0c7 0 12 5 12 12l0 27 28 0c3 0 6 2 8 4l41 40c19-7 40-11 61-11 95 0 173 78 173 173 0 95-78 173-173 173z m0-321c-21 0-41 4-59 13-5 2-11 0-14-3 0 0 0 0 0 0l-43-42-34 0c-7 0-13-6-13-13l0-27-12 0c-7 0-13-6-13-13l0-12-31 0c-7 0-12-6-12-13l0-38-18-18-57 0 0 18 154 154c5 5 5 12 0 16-4 5-11 5-16 0l-138-138 0 23 168 168c0 0 0 0 0 0 3 3 5 9 3 14-9 18-13 38-13 59 0 81 66 148 148 148 81 0 148-67 148-148 0-82-67-148-148-148z m53 248c-26 0-48-21-48-47 0-26 22-48 48-48 26 0 47 22 47 48 0 26-21 47-47 47z m0-69c-12 0-22 9-22 22 0 12 10 22 22 22 12 0 22-10 22-22 0-13-10-22-22-22z"/>
<glyph glyph-name="kitchen" unicode="&#61;" d="M111 367c-5 0-9-4-9-9l0-17-8 0c-5 0-9-3-9-8 0-5 4-9 9-9l17 0c5 0 8 4 8 9l0 25c0 5-3 9-8 9z m136-77l137 0c5 0 9 4 9 9 0 4-4 8-9 8l-10 0-16 112c0 5-4 8-8 8l-68 0c-5 0-8-3-9-8l-16-112-10 0c-4 0-8-4-8-8 0-5 4-9 8-9z m95 120l4-26-61 0 4 26z m-59-43l66 0 8-60-83 0z m67-162l-68 0c-5 0-9-4-9-9l0-59c0-5 4-9 9-9l68 0c5 0 8 4 8 9l0 59c0 5-3 9-8 9z m-9-60l-51 0 0 43 51 0z m-128 60l-17 0c-4 0-8-4-8-9 0-4 4-8 8-8l9 0 0-9c0-5 4-8 8-8 5 0 9 3 9 8l0 17c0 5-4 9-9 9z m-102 51l-17 0c-5 0-9-4-9-9 0-4 4-8 9-8l8 0 0-17c0-5 4-9 9-9 5 0 8 4 8 9l0 25c0 5-3 9-8 9z m392-17l-349 0 0 179c0 5-4 9-9 9l-136 0c-5 0-9-4-9-9l0-324c0-5 4-9 9-9l494 0c5 0 9 4 9 9l0 136c0 5-4 9-9 9z m-8-68l-102 0 0 51 102 0z m-478 239l120 0 0-103-120 0z m0-120l120 0 0-188-120 0z m137-68l85 0 0-120-85 0z m102 0l119 0 0-120-119 0z m239-120l-102 0 0 52 102 0z m-77 86l51 0c5 0 9 4 9 8 0 5-4 9-9 9l-51 0c-5 0-8-4-8-9 0-4 3-8 8-8z m0-69l51 0c5 0 9 4 9 9 0 5-4 9-9 9l-51 0c-5 0-8-4-8-9 0-5 3-9 8-9z"/>
<glyph glyph-name="light-bulb-off" unicode="&#63;" d="M86 340c0-22 4-44 12-63 2-6 5-11 7-16 5-9 27-73 48-113l7-15c3-4 5-8 8-12 4-7 4-14 1-18-2-3-3-6-3-10 0-3 1-5 2-8 2-4 2-8 0-12-1-3-2-5-2-8 0-11 9-19 19-19 0 0 4 0 8 0 4 0 8-4 9-9 1-2 1-5 2-8 4-18 25-32 46-32l31 0c21 0 40 14 42 32 0 0 1 4 1 8 1 5 5 9 9 9l7 0c11 0 19 8 19 19 0 3 0 5-1 8-2 4-2 8 0 12 1 3 1 5 1 8 0 4-1 9-4 12-4 5-7 11-3 17 3 4 5 8 7 12l37 95c6 15 13 31 16 37 1 3 3 7 5 11 7 19 12 41 12 63 0 95-77 172-172 172-94 0-171-77-171-172z m291-55c-2-5-9-20-14-34l-27-68c-15-32-50-58-76-58-27 0-61 26-78 57l-6 11c-16 31-33 81-37 88-2 4-4 8-5 12-6 16-10 32-10 50 0 74 60 133 133 133 74 0 134-60 134-133 0-18-4-34-10-50-1-3-2-5-4-8z"/>
<glyph glyph-name="monitor" unicode="&#93;" d="M481 484l-450 0c-17 0-31-14-31-31l0-311c0-17 14-31 31-31l154 0 0-22c0-21-17-37-37-37l-34 0c-7 0-12-6-12-12 0-7 5-12 12-12l284 0c7 0 12 5 12 12 0 6-5 12-12 12l-34 0c-20 0-37 16-37 37l0 22 154 0c17 0 31 14 31 31l0 311c0 17-14 31-31 31z m-285-432c8 10 13 23 13 37l0 22 94 0 0-22c0-14 5-27 13-37z m292 90c0-4-3-7-7-7l-450 0c-4 0-7 3-7 7l0 62 464 0z m0 86l-464 0 0 225c0 4 3 7 7 7l450 0c4 0 7-3 7-7z m-219-58c0-7-6-13-13-13-7 0-13 6-13 13 0 7 6 12 13 12 7 0 13-5 13-12z m7 233c-4 4-12 4-16 0l-84-84c-4-4-4-12 0-16 2-3 5-4 8-4 4 0 7 1 9 4l83 83c5 5 5 12 0 17z m50-49c-5 5-12 5-17 0l-33-33c-5-4-5-12 0-17 2-2 5-3 8-3 3 0 6 1 8 3l34 34c4 4 4 12 0 16z"/>
<glyph glyph-name="moon" unicode="&#94;" d="M504 185c-8 6-19 7-27 0-36-27-79-41-124-41-12 0-24 1-36 3-5 1-9-2-10-7-1-5 2-9 7-10 13-2 26-4 39-4 49 0 95 16 134 45 2 2 4 2 6 0 1-1 2-3 1-5-19-42-49-77-88-102-39-26-85-40-133-40-133 0-242 109-242 243 0 47 14 93 39 132 26 39 61 69 103 88 2 1 4 1 5-1 1-2 1-4 0-6-29-38-45-84-45-133 0-47 15-93 43-131 27-37 65-64 108-79 5-1 10 1 11 6 2 5-1 10-5 11-83 28-139 105-139 193 0 45 14 87 41 123 6 8 6 19 0 27-7 8-17 11-27 6-44-20-82-53-109-94-28-42-43-91-43-142 0-144 117-260 260-260 51 0 100 14 143 42 41 27 74 65 94 110 4 9 2 20-6 26z m-253 163c21 0 38-17 38-38 0-4 4-8 9-8 5 0 8 4 8 8 0 21 17 38 38 38 5 0 9 4 9 9 0 5-4 8-9 8-21 0-38 17-38 38 0 5-3 9-8 9-5 0-9-4-9-9 0-21-17-38-38-38-4 0-8-3-8-8 0-5 4-9 8-9z m47 25c4-6 10-12 16-16-6-5-12-10-16-17-5 7-10 12-17 17 7 4 12 10 17 16z m77-138c15 0 28 13 28 28 0 15-13 27-28 27-15 0-27-12-27-27 0-15 12-28 27-28z m0 37c6 0 10-4 10-9 0-6-4-10-10-10-5 0-9 4-9 10 0 5 4 9 9 9z m-335-197c-15 0-27-12-27-27 0-15 12-27 27-27 15 0 28 12 28 27 0 15-13 27-28 27z m0-37c-5 0-9 5-9 10 0 5 4 10 9 10 6 0 10-5 10-10 0-5-4-10-10-10z m269 214c0-7-5-11-11-11-6 0-11 4-11 11 0 6 5 11 11 11 6 0 11-5 11-11z m-287-132c0-6-5-11-11-11-6 0-11 5-11 11 0 6 5 11 11 11 6 0 11-5 11-11z m357 301c0-6-5-11-11-11-6 0-11 5-11 11 0 6 5 11 11 11 6 0 11-5 11-11z"/>
<glyph glyph-name="nature" unicode="&#95;" d="M335 145c0 1 0 1 0 2-1 17-4 34-11 50-1 1-1 3-2 4-1 2-2 3-2 5-1 1-2 3-3 4 0 1-1 2-1 2-1 2-2 3-3 5 0 1-1 2-2 4l-75 112 0 0-9 13-9 14 0 0-26 38-119-177c-15-22-23-48-24-74-1-25 5-49 17-71 11-23 28-41 49-54 22-14 48-22 75-22 1 0 1 0 2 0 1 0 1 0 2 0 27 0 53 8 75 22 21 13 38 31 49 54 7 12 12 25 14 39 1 5 2 10 2 15 1 5 1 10 1 15z m128 116c-1 26-9 52-24 74l-119 177-84-126 9-13 9-13 82-122c5-8 10-17 14-25 0 0 7-13 10-30 3-10 4-20 5-30 0-2 0-4 0-5 0-4 0-8 0-11 0-6-1-11-1-17 11 4 23 9 33 16 21 13 38 32 49 54 12 22 18 46 17 71z"/>
<glyph glyph-name="roller-shutter-door" unicode="&#126;" d="M108 317c0 9 6 15 15 15l266 0c9 0 15-6 15-15 0-8-6-15-15-15l-266 0c-9 0-15 7-15 15z m15-187l266 0c9 0 15 7 15 15 0 9-6 15-15 15l-266 0c-9 0-15-6-15-15 0-8 6-15 15-15z m0 115l266 0c9 0 15 7 15 15 0 9-6 16-15 16l-266 0c-9 0-15-7-15-16 0-8 6-15 15-15z m0-59l266 0c9 0 15 7 15 16 0 8-6 15-15 15l-266 0c-9 0-15-7-15-15 0-9 6-16 15-16z m343 190l0-290 31 0c8 0 15-7 15-16 0-8-7-15-15-15l-482 0c-8 0-15 7-15 15 0 9 7 16 15 16l31 0 0 290-31 0c-8 0-15 7-15 16l0 50c0 8 7 15 15 15l482 0c8 0 15-7 15-15l0-50c0-9-7-16-15-16z m-31 0l-358 0 0-290 358 0z"/>
<glyph glyph-name="roller-shutter-door-crossed" unicode="&#92;" d="M124 260c0 7 6 14 14 14l38 0 28-28-66 0c-8 0-14 6-14 14z m-27-155l0 248-68 68c0 0-1 0-1 0l0-44c0-8 7-14 14-14l27 0 0-258-27 0c-7 0-14-6-14-14 0-7 7-14 14-14l330 0-27 28z m41 89l118 0-28 27-90 0c-8 0-14-6-14-13 0-8 6-14 14-14z m0 103l15 0-24 24c-3-3-5-7-5-11 0-7 6-13 14-13z m0-153l168 0-27 27-141 0c-8 0-14-6-14-14 0-7 6-13 14-13z m369-139c-4-3-9-5-13-5-5 0-10 2-13 5l-476 476c-7 7-7 19 0 26 7 7 19 7 26 0l72-72 367 0c7 0 14-7 14-14l0-44c0-8-7-14-14-14l-27 0 0-258 27 0c7 0 14-6 14-14 0-7-7-14-14-14l-10 0 47-46c7-7 7-19 0-26z m-332 358l39-39 160 0c8 0 14-6 14-14 0-7-6-13-14-13l-133 0 23-23 110 0c8 0 14-7 14-14 0-8-6-14-14-14l-83 0 25-25 58 0c8 0 14-6 14-13 0-8-6-14-14-14l-30 0 23-23 7 0c8 0 14-6 14-14 0-2-1-4-2-6l29-29 0 241z"/>
<glyph glyph-name="rss" unicode="&#57344;" d="M72 144c-40 0-72-32-72-72 0-40 32-72 72-72 40 0 72 32 72 72 0 40-32 72-72 72z m0-114c-23 0-42 19-42 42 0 23 19 42 42 42 23 0 42-19 42-42 0-23-19-42-42-42z m274 15c-15 74-51 142-105 195-53 54-121 91-196 106-11 2-22-1-31-8-9-7-14-18-14-29l0-38c0-17 12-32 30-36 50-12 95-37 132-73 36-37 61-82 73-132 4-18 19-30 36-30l38 0c11 0 22 5 29 14 7 9 10 20 8 31z m-31-12c-1-1-3-3-6-3l-38 0c-3 0-6 3-7 6-12 56-40 107-81 147-40 41-91 69-147 81-3 1-6 4-6 7l0 38c0 3 2 5 3 6 1 0 2 1 5 1 0 0 1 0 1 0 69-14 131-47 181-97 49-49 83-112 96-180 1-3-1-5-1-6z m197 10c-8 59-26 116-52 170-26 52-60 100-101 141-42 43-90 78-143 104-55 28-113 46-173 54-11 1-22-2-30-9-8-8-13-18-13-29l0-37c0-18 14-34 32-37 92-13 176-55 243-120 33-33 61-70 82-112 22-43 36-88 43-135 3-19 19-33 37-33l37 0c11 0 21 5 29 13 7 8 10 19 9 30z m-32-10c-1-1-3-3-6-3l-37 0c-3 0-6 3-7 7-7 50-23 99-46 145-23 44-52 84-88 120-71 69-161 114-259 128-4 1-7 4-7 7l0 37c0 3 2 5 3 6 1 1 2 2 5 2 0 0 0 0 1 0 57-8 112-25 163-51 50-25 96-58 135-98 39-39 71-84 96-134 25-50 41-104 49-160 0-3-1-5-2-6z"/>
<glyph glyph-name="settings" unicode="&#57345;" d="M486 313l-48 0c-8 0-14 4-17 11-3 7-2 15 4 20l34 34c5 5 7 12 7 19 0 7-2 13-7 18l-44 44c-10 10-27 10-37 0l-34-34c-5-6-13-7-20-4-7 3-11 9-11 17l0 48c0 14-12 26-26 26l-62 0c-14 0-26-12-26-26l0-48c0-8-4-14-11-17-7-3-15-2-20 4l-34 34c-10 10-27 10-37 0l-44-44c-5-5-7-11-7-18 0-7 2-14 7-19l34-34c6-5 7-13 4-20-3-7-9-11-17-11l-48 0c-14 0-26-12-26-26l0-62c0-14 12-26 26-26l48 0c8 0 14-4 17-11 3-7 2-15-4-20l-34-34c-5-5-7-12-7-19 0-7 2-13 7-18l44-44c10-10 27-10 37 0l34 34c5 6 13 7 20 4 7-3 11-9 11-17l0-48c0-14 12-26 26-26l62 0c14 0 26 12 26 26l0 48c0 8 4 14 11 17 7 3 15 2 20-4l34-34c10-10 27-10 37 0l44 44c5 5 7 11 7 18 0 7-2 14-7 19l-34 34c-6 5-7 13-4 20 3 7 9 11 17 11l48 0c14 0 26 12 26 26l0 62c0 14-12 26-26 26z m7-88c0-4-3-7-7-7l-48 0c-16 0-29-9-35-23-6-14-3-30 8-41l34-34c3-2 3-7 0-10l-43-43c-3-3-8-3-10 0l-34 34c-11 11-27 14-41 8-14-6-23-19-23-35l0-48c0-4-3-7-7-7l-62 0c-4 0-7 3-7 7l0 48c0 16-9 29-23 35-5 2-10 3-15 3-9 0-18-4-26-11l-34-34c-2-3-7-3-10 0l-43 43c-3 3-3 8 0 10l34 34c11 11 14 27 8 41-6 14-19 23-35 23l-48 0c-4 0-7 3-7 7l0 62c0 4 3 7 7 7l48 0c16 0 29 9 35 23 6 14 3 30-8 41l-34 34c-3 2-3 7 0 10l43 43c3 3 8 3 10 0l34-34c11-11 27-14 41-8 14 6 23 19 23 35l0 48c0 4 3 7 7 7l62 0c4 0 7-3 7-7l0-48c0-16 9-29 23-35 14-6 30-3 41 8l34 34c2 3 7 3 10 0l43-43c3-3 3-8 0-10l-34-34c-11-11-14-27-8-41 6-14 19-23 35-23l48 0c4 0 7-3 7-7z m-237 116c-47 0-85-38-85-85 0-47 38-85 85-85 47 0 85 38 85 85 0 47-38 85-85 85z m0-151c-37 0-66 29-66 66 0 37 29 66 66 66 37 0 66-29 66-66 0-37-29-66-66-66z"/>
<glyph glyph-name="siren" unicode="&#57349;" d="M92 263c0 10-9 19-20 19l-52 0c-11 0-20-9-20-19 0-11 9-20 20-20l52 0c11 0 20 9 20 20z m-68 96l48-22c3-2 5-2 8-2 8 0 15 4 18 11 5 10 1 22-9 26l-48 23c-10 4-21 0-26-10-5-9 0-21 9-26z m468-77l-52 0c-11 0-20-9-20-19 0-11 9-20 20-20l52 0c11 0 20 9 20 20 0 10-9 19-20 19z m-60 53c3 0 5 0 8 2l48 22c9 5 14 17 9 26-5 10-16 14-26 10l-48-23c-10-4-14-16-9-26 3-7 10-11 18-11z m-18-184l-14 0-33 284c-1 10-9 18-19 18l-184 0c-10 0-18-8-19-18l-33-284-14 0c-25 0-45-21-45-46 0-25 20-46 45-46l316 0c25 0 45 21 45 46 0 25-20 46-45 46z m-232 263l74 0 0-263-105 0z"/>
<glyph glyph-name="smiling-emoticon-square-face" unicode="&#57350;" d="M437 437c-100 100-262 100-362 0-100-100-100-262 0-362 100-100 262-100 362 0 100 100 100 262 0 362z m-28-334c-84-85-222-85-306 0-85 84-85 222 0 306 84 85 222 85 306 0 85-84 85-222 0-306z m-248 222c0 17 13 30 30 30 16 0 29-13 29-30 0-16-13-30-29-30-17 0-30 14-30 30z m135 0c0 17 14 30 30 30 17 0 30-13 30-30 0-16-13-30-30-30-16 0-30 14-30 30z m71-122c-18-43-62-71-111-71-49 0-93 28-111 71-3 7 0 16 8 19 2 1 4 1 5 1 6 0 11-3 14-9 13-32 46-53 84-53 38 0 71 21 85 53 3 7 11 11 19 8 7-4 10-12 7-19z"/>
<glyph glyph-name="snoflakes-winter-cloud" unicode="&#57351;" d="M435 368c-1 0-2 1-2 3 2 9 4 18 4 27 0 63-52 114-115 114-49 0-92-31-108-77 0-1 0-4-2-4-1 0-2 1-2 1-1 0-2 0-3 0-35 0-67-22-81-55-1-2-4-5-9-5-4 1-8 1-11 1-49 0-89-40-89-88 0-49 40-89 89-89l300 0c49 0 89 40 89 89 0 37-25 71-60 83z m-29-151l-300 0c-38 0-68 30-68 68 0 37 30 68 68 68 4 0 9-1 13-2 2 0 4 0 5 0 9 0 16 4 18 12 10 29 36 48 65 48 1 0 2 0 3 0 1 0 3 0 4 0l0 0c8 0 17 2 19 14 0 1 0 1 0 1 12 39 48 66 89 66 52 0 94-42 94-94 0-9-1-18-4-27-1-6 0-10 1-13 4-6 9-7 12-8l0 0c29-8 49-35 49-65 0-38-30-68-68-68z m-233-60c-3 3-7 5-13 5-13 0-34-7-42-15-13-13-13-33 0-46 6-6 14-9 22-9 9 0 17 3 23 9 7 8 11 22 13 27 5 22-1 27-3 29z m-25-41c-2-2-5-4-8-4-3 0-6 2-8 4-2 2-3 5-3 8 0 3 1 6 3 8 4 4 22 14 25 9 3-3-5-21-9-25z m138 41c-3 3-7 5-13 5-13 0-34-7-42-15-13-13-13-33 0-46 6-6 14-9 22-9 9 0 17 3 23 9 7 8 11 22 13 27 5 22-1 27-3 29z m-25-41c-2-2-5-4-8-4-3 0-6 2-8 4-2 2-3 5-3 8 0 3 1 6 3 8 4 4 21 14 25 9 3-3-5-21-9-25z m125 46c-13 0-34-7-43-15-12-13-12-33 0-46 6-6 14-9 23-9 8 0 16 3 22 9 8 8 12 22 13 27 6 22 0 27-2 29-3 3-7 5-13 5z m-12-46c-2-2-5-4-8-4-3 0-6 2-8 4-2 2-4 5-4 8 0 3 2 6 4 8 4 4 21 14 25 9 3-3-5-21-9-25z m-45-46c-13 0-33-7-42-16-12-12-12-32 0-45 6-6 14-9 23-9 8 0 16 3 22 9 8 8 12 22 13 27 5 22 0 27-2 29-3 3-8 5-14 5z m-11-46c-3-2-5-4-8-4-4 0-6 2-9 4-2 2-3 5-3 8 0 3 1 6 3 8 4 4 22 14 26 9 3-3-5-21-9-25z m-102 46c-12 0-33-7-42-16-12-12-12-32 0-45 6-6 14-9 23-9 8 0 16 3 22 9 8 8 12 22 13 27 5 22 0 27-2 29-3 3-8 5-14 5z m-11-46c-2-2-5-4-8-4-3 0-6 2-8 4-3 2-4 5-4 8 0 3 1 6 4 8 3 4 21 14 25 9 3-3-5-21-9-25z"/>
<glyph glyph-name="sofa" unicode="&#57352;" d="M107 299l0-54 298 0 0 54c0 29 24 53 54 53l10 0 0 32c0 18-14 32-32 32l-362 0c-18 0-32-14-32-32l0-32 10 0c30 0 54-24 54-53z m373 32l-21 0c-18 0-32-15-32-32l0-64c0-6-5-11-11-11l-320 0c-6 0-11 5-11 11l0 64c0 17-14 32-32 32l-21 0c-18 0-32-15-32-32l0-128c0-18 14-32 32-32l11 0 0-32c0-6 4-11 10-11l64 0c6 0 11 5 11 11l0 32 256 0 0-32c0-6 5-11 11-11l64 0c6 0 10 5 10 11l0 32 11 0c18 0 32 14 32 32l0 128c0 17-14 32-32 32z"/>
<glyph glyph-name="solarpanel" unicode="&#57353;" d="M0 150l20-20 36 37 0-142 246 0 0 142 36-37 20 20-179 180z m273-96l-59 0 0 72-70 0 0-72-59 0 0 141 94 94 94-94z m-44 305l169-169-20-20-169 169z m221 20c0-25-20-46-46-46-25 0-46 21-46 46 0 26 21 46 46 46 26 0 46-20 46-46z m-37 61l-17 0 8 47z m-17-122l17 0-9-47z m69 70l47-9-47-8z m-122-17l-47 8 47 9z m108-28l23-33-33 22z m-94 73l-22 33 33-23z m-22-106l22 33 11-11z m116 106l-10 10 33 23z"/>
<glyph glyph-name="stop" unicode="&#57354;" d="M455 455l0-398-398 0 0 398 398 0m0 57l-398 0c-31 0-57-26-57-57l0-398c0-31 26-57 57-57l398 0c31 0 57 26 57 57l0 398c0 31-26 57-57 57z"/>
<glyph glyph-name="stormy-cloud-with-rain-and-thunder" unicode="&#57355;" d="M300 96l-33-7c0 0-5-1-2 3 6 11 27 43 27 43 3 5 2 12-3 15-6 4-13 2-16-3l-41-64c-3-5-4-11 0-16 3-4 8-6 14-5 0 0 29 6 38 8 2 1 2-2 2-2l-27-52c-3-5 0-12 5-15 2-1 4-1 5-1 4 0 8 2 10 6l36 70c3 6 2 11-1 16-3 4-9 6-14 4z m-166 45c-5 4-12 3-16-2l-27-39c-4-5-3-12 2-15 2-2 4-2 7-2 3 0 7 1 9 4l27 39c4 5 3 12-2 15z m53-62c-5 3-12 2-16-3l-28-38c-3-5-2-12 3-16 2-1 4-2 6-2 4 0 7 2 9 5l28 38c4 5 3 12-2 16z m199 62c-5 4-12 3-16-2l-28-39c-3-5-2-12 3-15 2-2 4-2 6-2 4 0 7 1 9 4l28 39c4 5 3 12-2 15z m52-62c-5 3-12 2-15-3l-28-38c-4-5-3-12 2-16 2-1 5-2 7-2 3 0 7 2 9 5l28 38c3 5 2 12-3 16z m8 283c3 9 4 18 4 28 0 67-55 122-123 122-53 0-99-34-116-84 0-1 0-2-2-2 0 0-1 0-1 0-1 0-3 0-4 0-40 0-75-25-89-62-1-1-2-3-5-2-5 1-10 1-15 1-52 0-95-43-95-95 0-52 43-95 95-95l322 0c52 0 95 43 95 95 0 40-26 77-64 90-1 0-2 1-2 4z m-29-166l-322 0c-40 0-72 32-72 72 0 40 32 73 72 73 5 0 10-1 15-2 1 0 3 0 5 0 9 0 16 5 19 13 11 31 38 52 70 52 1 0 2-1 3-1 1 0 3 0 4 0l1 0c7 0 17 3 20 16 0 0 0 0 0 0 13 42 51 71 95 71 55 0 100-45 100-100 0-10-1-20-4-29-2-7 0-12 1-14 4-7 10-8 13-9l0 0c31-9 52-38 52-70 0-40-32-72-72-72z"/>
<glyph glyph-name="sun" unicode="&#57356;" d="M256 96c18 0 32-14 32-32l0-32c0-18-14-32-32-32-18 0-32 14-32 32l0 32c0 18 14 32 32 32z m0 320c-18 0-32 14-32 32l0 32c0 18 14 32 32 32 18 0 32-14 32-32l0-32c0-18-14-32-32-32z m224-128c18 0 32-14 32-32 0-18-14-32-32-32l-32 0c-18 0-32 14-32 32 0 18 14 32 32 32z m-384-32c0-18-14-32-32-32l-32 0c-18 0-32 14-32 32 0 18 14 32 32 32l32 0c18 0 32-14 32-32z m318-113l23-23c13-12 13-33 0-45-12-13-33-13-45 0l-23 23c-12 12-12 32 0 45 13 12 33 12 45 0z m-316 226l-23 23c-13 12-13 33 0 45 12 13 33 13 45 0l23-23c12-12 12-32 0-45-13-12-33-12-45 0z m316 0c-12-12-32-12-45 0-12 13-12 33 0 45l23 23c12 13 33 13 45 0 13-12 13-33 0-45z m-316-226c12 12 32 12 45 0 12-13 12-33 0-45l-23-23c-12-13-33-13-45 0-13 12-13 33 0 45z m158 241c-71 0-128-57-128-128 0-71 57-128 128-128 71 0 128 57 128 128 0 71-57 128-128 128z m0-208c-44 0-80 36-80 80 0 44 36 80 80 80 44 0 80-36 80-80 0-44-36-80-80-80z"/>
<glyph glyph-name="tree" unicode="&#57358;" d="M424 248c0 24-7 47-21 67 3 9 4 19 5 29 1 40-11 78-36 109-2 3-7 3-10 1-4-3-4-8-1-11 22-27 33-62 32-98-2-36-17-70-43-95-25-26-59-41-95-42l0 37 38 38c3 3 3 7 0 10-3 3-7 3-10 0l-28-27 0 30c0 4-3 8-7 8-4 0-8-4-8-8l0-54-35 35c-3 3-8 3-10 0-3-3-3-7 0-10l45-46 0-13c-35 1-69 16-94 42-57 56-57 148 0 205 25 25 59 40 95 42 35 2 70-10 98-32 3-3 8-2 11 1 2 3 2 8-2 10-30 25-69 38-108 36-40-2-77-19-105-47-62-62-62-163 0-226 17-17 37-29 59-37 9-23 26-42 46-55l0-132-40 0c-4 0-8-3-8-8 0-4 4-7 8-7l152 0c4 0 8 3 8 7 0 5-4 8-8 8l-40 0 0 113c62 4 112 56 112 120z m-184-83c-11 8-20 19-27 31 9-2 18-3 27-3z m64 18c-4 0-7-3-7-7l0-161-42 0 0 124c5-3 10-4 15-6 1 0 1 0 2 0 3 0 6 2 7 5 1 4-1 8-5 10-6 2-13 4-19 7l0 38c40 1 78 18 106 46 16 16 28 36 36 57 8-15 12-31 12-48 0-55-43-101-97-104l0 32c0 4-4 7-8 7z m-120 153c-4 0-8-4-8-8 0-5-4-8-8-8-5 0-9 3-9 8 0 3 2 6 5 8 3 2 4 6 2 10-2 3-6 5-10 3-7-5-12-12-12-21 0-13 11-23 24-23 13 0 23 10 23 23 0 4-3 8-7 8z m128 24c-4 0-7-4-7-8 0-5-4-8-9-8-5 0-8 3-8 8 0 3 1 6 4 8 3 2 5 6 3 10-3 3-7 5-11 3-7-5-11-12-11-21 0-13 10-23 23-23 13 0 24 10 24 23 0 4-4 8-8 8z m-64 72c-4 0-8-4-8-8 0-4-3-8-8-8-5 0-9 4-9 8 0 3 2 6 5 8 3 2 4 6 2 10-2 4-6 5-10 3-7-4-12-12-12-21 0-13 11-23 24-23 13 0 23 10 23 23 0 4-3 8-7 8z m-3-75l-8 9c-3 2-7 2-10 0-3-3-3-8 0-11l8-8c1-2 3-2 5-2 2 0 4 0 5 2 3 3 3 8 0 10z m-45 19l0 0c-4 0-8-4-8-8 0-4 4-7 8-7 4 0 7 3 7 7 0 4-3 8-7 8z m136 24l0 0c-4 0-7-4-7-8 0-4 3-7 7-7 4 0 8 3 8 7 0 4-4 8-8 8z m-152 40l0 0c-4 0-8-4-8-8 0-4 4-7 8-7 4 0 7 3 7 7 0 4-3 8-7 8z m120-177l0 0c-4 0-7-3-7-7 0-4 3-8 7-8 4 0 8 4 8 8 0 4-4 7-8 7z m-136 25l0 0c-4 0-8-4-8-8 0-4 4-7 8-7 4 0 7 3 7 7 0 4-3 8-7 8z m141 134c-3 3-7 3-10 0l-8-8c-3-3-3-8 0-11 1-1 3-2 5-2 2 0 4 1 5 2l8 8c3 3 3 8 0 11z m-144-24l-8 8c-3 3-8 3-11 0-2-3-2-8 0-11l8-8c2-1 4-2 6-2 2 0 4 1 5 2 3 3 3 8 0 11z m171-86c-4 0-7-4-7-8l0-8c0-4 3-7 7-7 4 0 8 3 8 7l0 8c0 4-4 8-8 8z m24 56l-8 0c-4 0-7-4-7-8 0-4 3-7 7-7l8 0c4 0 8 3 8 7 0 4-4 8-8 8z m-80 96c-4 0-7-3-7-8l0-8c0-4 3-7 7-7 4 0 8 3 8 7l0 8c0 5-4 8-8 8z m-64-152l-8 0c-4 0-8-4-8-8 0-4 4-7 8-7l8 0c4 0 7 3 7 7 0 4-3 8-7 8z m120-129l0 0c-4 0-7-3-7-7 0-4 3-8 7-8 4 0 8 4 8 8 0 4-4 7-8 7z m32 32l0 0c-4 0-7-3-7-7 0-4 3-8 7-8 4 0 8 4 8 8 0 4-4 7-8 7z m-96-32l0 0c-4 0-8-3-8-7 0-4 4-8 8-8 4 0 7 4 7 8 0 4-3 7-7 7z"/>
<glyph glyph-name="umbrella" unicode="&#57360;" d="M271 284l221 0-236 228-236-228 221 0 0-130-113 0 0-30 113 0 0-124 30 0 0 124 113 0 0 30-113 0z m146 30l-60 0-51 108z m-322 0l111 108-51-108z m93 0l68 142 68-142z m-128-218l0-30 35 0 0-66 30 0 0 66 35 0 0 30z m292 0l0-30 35 0 0-66 30 0 0 66 35 0 0 30z"/>
<glyph glyph-name="volume-decrease" unicode="&#57362;" d="M256 288l256 0 0-64-256 0z m-48-256c-4 0-8 2-11 5l-124 123-57 0c-9 0-16 7-16 16l0 160c0 9 7 16 16 16l57 0 124 123c4 5 11 6 17 4 6-3 10-9 10-15l0-416c0-6-4-12-10-15-2-1-4-1-6-1z"/>
<glyph glyph-name="volume-increase" unicode="&#57364;" d="M512 224l-96 0 0-96-64 0 0 96-96 0 0 64 96 0 0 96 64 0 0-96 96 0z m-304-192c-4 0-8 2-11 5l-124 123-57 0c-9 0-16 7-16 16l0 160c0 9 7 16 16 16l57 0 124 123c4 5 11 6 17 4 6-3 10-9 10-15l0-416c0-6-4-12-10-15-2-1-4-1-6-1z"/>
<glyph glyph-name="volume-medium" unicode="&#57366;" d="M360 96c-6 0-13 3-17 7-10 10-10 25 0 34 65 66 65 172 0 238-10 9-10 24 0 34 9 9 24 9 34 0 41-41 63-95 63-153 0-58-22-112-63-153-5-4-11-7-17-7z m-85 45c-7 0-13 3-17 8-10 9-10 24 0 33 40 41 40 107 0 148-10 9-10 24 0 33 9 10 24 10 33 0 60-59 60-155 0-215-4-4-10-7-17-7z m-67-109c-4 0-8 2-11 5l-124 123-57 0c-9 0-16 7-16 16l0 160c0 9 7 16 16 16l57 0 124 123c4 5 11 6 17 4 6-3 10-9 10-15l0-416c0-6-4-12-10-15-2-1-4-1-6-1z"/>
<glyph glyph-name="volume-mute2" unicode="&#57368;" d="M480 202l0-42-42 0-54 54-54-54-42 0 0 42 54 54-54 54 0 42 42 0 54-54 54 54 42 0 0-42-54-54z m-272-170c-4 0-8 2-11 5l-124 123-57 0c-9 0-16 7-16 16l0 160c0 9 7 16 16 16l57 0 124 123c4 5 11 6 17 4 6-3 10-9 10-15l0-416c0-6-4-12-10-15-2-1-4-1-6-1z"/>
<glyph glyph-name="washing" unicode="&#57369;" d="M474 512l-436 0c-21 0-38-17-38-38l0-436c0-21 17-38 38-38l436 0c21 0 38 17 38 38l0 436c0 21-17 38-38 38z m-457-38c0 11 10 21 21 21l436 0c11 0 21-10 21-21l0-81-478 0z m457-457l-436 0c-11 0-21 10-21 21l0 337 478 0 0-337c0-11-10-21-21-21z m-380 461l-51 0c-5 0-9-4-9-9l0-51c0-5 4-8 9-8l51 0c5 0 8 3 8 8l0 51c0 5-3 9-8 9z m-9-51l-34 0 0 34 34 0z m69 51c-19 0-35-15-35-34 0-19 16-34 35-34 18 0 34 15 34 34 0 19-16 34-34 34z m0-51c-10 0-17 7-17 17 0 9 7 17 17 17 9 0 17-8 17-17 0-10-8-17-17-17z m204 51c-18 0-34-15-34-34 0-19 16-34 34-34 19 0 35 15 35 34 0 19-16 34-35 34z m0-51c-9 0-17 7-17 17 0 9 8 17 17 17 10 0 17-8 17-17 0-10-7-17-17-17z m86 51c-19 0-34-15-34-34 0-19 15-34 34-34 19 0 34 15 34 34 0 19-15 34-34 34z m0-51c-10 0-17 7-17 17 0 9 7 17 17 17 9 0 17-8 17-17 0-10-8-17-17-17z m-145 42l-86 0c-4 0-8-3-8-8 0-5 4-9 8-9l86 0c4 0 8 4 8 9 0 5-4 8-8 8z m0-34l-86 0c-4 0-8-4-8-8 0-5 4-9 8-9l86 0c4 0 8 4 8 9 0 4-4 8-8 8z m-43-94c-80 0-145-65-145-145 0-80 65-145 145-145 80 0 145 65 145 145 0 80-65 145-145 145z m0-17c71 0 128-57 128-128 0-9-1-17-3-25-47-20-80-1-103 11-4 2-7 3-9 5-51 29-92 39-141 3 0 2 0 4 0 6 0 71 57 128 128 128z m0-256c-62 0-113 44-125 102 46 38 80 30 130 2 3-2 6-3 9-5 16-9 40-22 71-22 11 0 22 2 34 5-18-48-65-82-119-82z m23 210c31-8 55-35 61-66 1-4 4-7 8-7 1 0 1 0 2 0 4 1 8 5 7 10-7 38-36 69-73 80-5 1-9-2-11-6-1-5 2-9 6-11z m-160 55c0 5-3 8-8 8l-51 0c-5 0-9-3-9-8 0-5 4-9 9-9l51 0c5 0 8 4 8 9z m333-265l-51 0c-5 0-8-4-8-8 0-5 3-9 8-9l51 0c5 0 9 4 9 9 0 4-4 8-9 8z"/>
<glyph glyph-name="iconmonstr-shield-12" unicode="&#40;" d="M256 456c63-48 138-64 190-70-14-150-104-268-190-334-86 66-176 184-190 334 52 6 127 22 190 70z m0 56c-64-64-160-85-235-85 0-183 108-344 235-427 127 83 235 244 235 427-75 0-171 21-235 85z m81-171l-94-95-47 45-26-26 73-72 120 122z"/>
<glyph glyph-name="printer" unicode="&#39;" d="M427 239c23 0 42 19 42 43 0 23-19 42-42 42-24 0-43-19-43-42 0-24 19-43 43-43z m0 68c14 0 25-11 25-25 0-15-11-26-25-26-14 0-26 11-26 26 0 14 12 25 26 25z m-69-162l-204 0c-5 0-9-4-9-8 0-5 4-9 9-9l204 0c5 0 9 4 9 9 0 4-4 8-9 8z m0-43l-204 0c-5 0-9-3-9-8 0-5 4-9 9-9l204 0c5 0 9 4 9 9 0 5-4 8-9 8z m77 265l0 145-358 0 0-145-77 0 0-290 51 0 0-26 26 0 0-51 358 0 0 51 26 0 0 26 51 0 0 290z m-341 128l324 0 0-128-324 0z m-17-145l418 0 0-137-478 0 0 137z m-9-282l0 60c0 5-4 9-8 9-5 0-9-4-9-9l0-34-34 0 0 102 60 0 0-128z m350-51l-324 0 0 179 324 0z m43 77l0 34c0 5-4 9-9 9-4 0-8-4-8-9l0-60-9 0 0 128 60 0 0-102z"/>
<glyph glyph-name="alarm" unicode="&#57372;" d="M209 446c-93 0-169-76-169-169 0-93 76-169 169-169 93 0 169 76 169 169 0 93-76 169-169 169z m0-323c-85 0-154 69-154 154 0 85 69 154 154 154 85 0 154-69 154-154 0-85-69-154-154-154z m-1 209c-30 0-55-25-55-55 0-31 25-55 55-55 31 0 55 24 55 55 0 30-24 55-55 55z m0-96c-22 0-41 18-41 41 0 22 19 40 41 40 22 0 41-18 41-40 0-23-19-41-41-41z m269 107c-19 0-34-15-34-34 0-12 6-22 14-28l-9-152c-1-18-15-31-33-31l-11 0 0 3c0 7-5 12-12 12l-16 0 0 11c0 7-4 14-11 16 32 37 50 84 51 134 0 4-3 7-7 7 0 0 0 0 0 0-4 0-7-3-7-7-2-103-86-188-189-191 0 0 0 0 0 0-2 0-3 0-5 0-2 0-3 0-5 0 0 0 0 0 0 0-103 3-187 88-188 191 0 4-4 7-8 7 0 0 0 0 0 0-4 0-7-3-7-7 1-50 19-97 51-134-6-2-11-9-11-16l0-78c0-10 8-19 19-19l298 0c11 0 19 9 19 19l16 0c7 0 12 5 12 12l0 2 11 0c38 0 69 29 71 66l9 153c10 6 17 17 17 30 0 19-15 34-35 34z m-115-290l0-7c0-2-2-4-5-4l-298 0c-2 0-4 2-4 4l0 78c0 1 1 3 2 3l7 0c0 0 0 0 0-1 1-1 2-2 3-2 1-1 1-1 1-1 1-1 2-2 3-3 0 0 1 0 1 0 1-1 2-2 3-3 0 0 0 0 1-1 1-1 2-1 3-2 0 0 0-1 1-1 1-1 2-1 3-2 0 0 0-1 1-1 1-1 2-1 3-2 0 0 0-1 1-1 1-1 2-1 3-2 0 0 0-1 1-1 1 0 2-1 3-2 0 0 1 0 1 0 1-1 2-2 3-3 0 0 1 0 1 0 1-1 2-1 3-2 1 0 1 0 1-1 2 0 3-1 4-2 0 0 0 0 1 0 1-1 2-1 3-2 0 0 1 0 1 0 1-1 2-2 3-2 1 0 1-1 2-1 1 0 2-1 3-1 0 0 1-1 1-1 1 0 2-1 3-1 1 0 1-1 2-1 1 0 2-1 3-1 0 0 1-1 2-1 1 0 2-1 3-1 0 0 1 0 1-1 1 0 2 0 3-1 1 0 1 0 2 0 1-1 2-1 3-1 0 0 1-1 2-1 1 0 2 0 3-1 0 0 1 0 2 0 0 0 1-1 2-1 1 0 2 0 2-1 1 0 2 0 3 0 1 0 2-1 2-1 1 0 2 0 3 0 1-1 2-1 2-1 1 0 2 0 3 0 1-1 1-1 2-1 1 0 2 0 3 0 1 0 1-1 2-1 1 0 2 0 3 0 1 0 1 0 2 0 1-1 2-1 3-1 1 0 2 0 2 0 1 0 2 0 3 0 1 0 2 0 3-1 0 0 1 0 2 0 1 0 2 0 3 0 0 0 1 0 2 0 1 0 2 0 3 0 1 0 1 0 2 0 2 0 3 0 5 0 2 0 3 0 5 0 1 0 1 0 2 0 1 0 2 0 3 0 1 0 2 0 2 0 1 0 2 0 3 0 1 0 2 0 3 0 1 1 1 1 2 1 1 0 2 0 3 0 1 0 2 0 2 0 1 0 2 0 3 1 1 0 2 0 2 0 1 0 2 0 3 0 1 0 2 1 2 1 1 0 2 0 3 0 1 0 1 0 2 1 1 0 2 0 3 0 1 0 1 0 2 1 1 0 2 0 3 0 1 0 1 1 2 1 1 0 2 0 3 0 0 1 1 1 2 1 1 0 2 1 3 1 0 0 1 0 2 0 1 1 2 1 2 1 1 0 2 1 2 1 1 0 2 0 3 1 1 0 1 0 2 0 1 1 2 1 3 1 1 1 1 1 2 1 1 0 2 1 3 1 0 0 1 1 1 1 1 0 2 1 3 1 1 0 1 1 2 1 1 0 2 1 3 1 0 0 1 1 1 1 1 0 2 1 3 1 1 0 1 1 2 1 1 0 2 1 3 2 0 0 1 0 1 0 1 1 2 1 3 2 1 0 1 0 2 0 1 1 2 2 3 2 0 1 0 1 1 1 1 1 2 1 3 2 0 0 1 0 1 0 1 1 2 2 3 3 1 0 1 0 1 0 1 1 2 2 3 2 1 0 1 1 1 1 1 1 3 1 4 2 0 0 0 1 0 1 2 1 3 1 4 2 0 0 0 1 0 1 2 1 3 1 4 2 0 0 0 1 0 1 1 1 3 1 4 2 0 1 0 1 0 1 1 1 2 2 3 3 1 0 1 0 1 0 1 1 2 2 3 3 0 0 1 0 1 1 1 1 2 1 3 2 0 1 0 1 0 1l7 0c1 0 3-2 3-3l0-18 0 0z m28 37l0-29-14 0 0 38 14 0z m82 37c-2-30-27-53-57-53l-11 0 0 9 11 0c26 0 46 20 48 45l8 147c1 0 1 0 1 0 0 0 1-1 2-1 0 0 0 0 0 0 0 0 1 0 2 0 0 0 0 0 0 0 1 0 1 0 1 0 1 0 1 0 1 0 0 0 0 0 1 0 0 0 0 0 1 0 0 0 0 0 0 0z m5 162c0 0-1 0-1 0 0 0-1 0-1 0 0 0-1 0-1 0-1 0-1 0-1 0-1 0-2 1-3 1 0 0 0 0 0 0-7 3-12 10-12 19 0 11 8 20 19 20 11 0 20-9 20-20 0-11-9-20-20-20z m-63 21c-8 48-33 92-70 125-38 32-86 50-136 50-50 0-98-18-136-50-37-33-62-77-69-125-1-4 2-8 6-9 4 0 7 2 8 6 15 95 95 163 191 163 96 0 176-68 191-163 1-3 4-6 7-6 1 0 1 0 2 0 4 1 6 5 6 9z"/>
<glyph glyph-name="carkey" unicode="&#57373;" d="M455 448c-36 36-80 58-119 58-49 0-87-56-110-103-18-37-21-80-7-117l-84-85c-3-3-3-7 0-10 2-3 7-3 10 0l83 83 52-52-14-14c-1-2-4-2-5 0l-4 3c-3 3-7 3-10 0l-14-13-22-3c-3-1-6-3-6-7l-4-24c0 0 0-1 0-1l-13-13c0 0 0 0 0 0l-25-3c-3-1-6-3-6-7l-4-24c0 0 0 0 0-1l-13-13c0 0 0 0 0 0l-25-3c-3-1-6-3-6-6l-3-25c0 0 0 0 0 0l-14-14c0 0 0 0 0 0l-25-3c-3 0-5-3-6-6l-3-22-39-2c-1 0-1 0-1 0-1 0-2 0-2 1-1 0-1 1-1 2l5 39c0 1 0 1 0 1 0 1 0 2 1 2l99 100c3 3 3 7 0 10-3 3-8 3-10 0l-100-99c-3-3-5-8-5-12l-5-40c0 0 0-1 0-1 0-5 2-10 6-13 3-3 7-5 12-5 0 0 1 0 2 0l40 3c0 0 0 0 0 0 7 1 12 6 12 12l3 16 19 3c3 0 6 1 8 4l14 14c3 2 4 5 4 8l3 19 18 3c4 0 7 1 9 4l14 13c2 3 4 6 4 9l3 19 18 3c4 0 7 1 9 4l14 13c2 3 4 6 4 9l2 19 20 3c1 0 3 1 4 2l10 10c7-6 18-5 24 1l16 16c16-6 33-9 50-9 23 0 46 5 67 15 11 6 21 11 30 17 3 2 4 6 2 10-2 3-6 4-10 2-9-5-18-10-29-15-33-17-72-19-106-6-1 0-1 0-1 0l-31 31-31 31c0 0 0 0 0 0-13 35-10 74 6 107 13 27 27 49 41 65 19 20 38 30 56 30 35 0 75-20 108-53 34-33 53-73 53-108 0-21-13-42-38-63-3-2-4-7-1-10 2-3 7-4 10-1 29 23 44 48 44 74 0 38-21 83-57 118z m-21-20c-17 17-45 17-62 0-18-17-18-46 0-63 8-8 20-13 31-13 11 0 22 5 31 13 17 17 17 46 0 63z m-10-52c-6-6-13-9-21-9-8 0-16 3-21 9-12 11-12 30 0 41 6 6 13 9 21 9 7 0 15-3 21-9 11-11 11-30 0-41z"/>
<glyph glyph-name="curtain" unicode="&#57374;" d="M465 512l-418 0c-8 0-14-6-14-13l0-334c0-4 4-8 8-8 4 0 7 4 7 8l0 332 416 0 0-48c0-4 3-8 7-8 4 0 8 4 8 8l0 50c0 7-6 13-14 13z m30-460l-16 0 0 362c0 4-4 7-8 7-4 0-7-3-7-7l0-362-17 0 0 415c0 7-6 13-13 13l-356 0c-7 0-13-6-13-13l0-415-17 0 0 78c0 4-3 7-7 7-4 0-8-3-8-7l0-78-16 0c-7 0-13-5-13-13l0-26c0-7 6-13 13-13l478 0c7 0 13 6 13 13l0 26c0 8-6 13-13 13z m-88 413l25 0 0-31-25 0z m0-46l25 0 0-32-25 0z m0-47l25 0 0-32-25 0z m0-46l25 0 0-32-25 0z m0-47l25 0 0-32-25 0z m-27-39l0 225 13 0 0-294c0-3-3-5-5-5l-3 0c-3 0-5 2-5 5z m5-88l3 0c10 0 19 8 19 19l0 62 3 0 0-162-136 0 0 162 92 0 0-62c0-11 8-19 19-19z m-305 313l286 0 0-31-286 0z m0-46l286 0 0-32-286 0z m0-47l286 0 0-32-286 0z m0-46l286 0 0-32-286 0z m0-47l286 0 0-32-286 0z m158-46l0-162-136 0 0 162z m-158 0l8 0 0-163c0-7 6-13 13-13l138 0c8 0 14 6 14 13l0 163 6 0 0-163c0-7 6-13 14-13l138 0c7 0 13 6 13 13l0 163 8 0 0-181-352 0z m414-218l-476 0 0 23 476 0z"/>
<glyph glyph-name="faucetcool" unicode="&#57375;" d="M494 396l-36 0c-4 0-7-3-7-7 0-4 3-7 7-7l36 0c2 0 3-2 3-4l0-76-113 0 0 19c0 3-2 6-4 7-3 1-6 0-8-2l-221-212-87 0 0 38c0 4-3 7-7 7-4 0-8-3-8-7l0-39c0-7 6-13 14-13l89 0c3 0 6 1 9 3l209 201 0-3c0-8 6-14 14-14l114 0c8 0 14 6 14 14l0 77c0 10-8 18-18 18z m-70 0l-44 0c-3 0-7-1-10-3l-209-137 0 50c0 16-13 29-29 29l-2 0 0 17 1 0c6 0 11 4 11 10l41-5c1 0 2 0 3 0 14 0 25 11 25 25 0 14-11 25-25 25-1 0-2 0-3 0l-41-5c0 6-5 10-11 10l-51 0c-6 0-11-4-11-10l-41 5c-1 0-2 0-3 0-14 0-25-11-25-25 0-14 11-25 25-25 1 0 2 0 3 0l41 5c0-6 5-10 11-10l0 0 0-17-2 0c-16 0-29-13-29-29l0-119c0-4 4-8 8-8 4 0 7 4 7 8l0 119c0 8 6 14 14 14l54 0c8 0 15-6 15-14l0-64c0-2 1-5 3-6 3-1 6-1 8 0l220 145c1 0 1 1 2 1l44 0c4 0 7 3 7 7 0 4-3 7-7 7z m-239-4c0 0 0 0 1 0 6 0 10-4 10-10 0-6-4-10-10-10-1 0-1 0-1 0l-43 5 0 11 0 0z m-159-20c0 0-1 0-1 0-6 0-10 4-10 10 0 6 4 10 10 10 0 0 1 0 1 0l42-4 0-11z m90-37l-21 0 0 17 21 0z m12 59l0-27-45 0 0 31 45 0z m343-171c-5 10-11 21-15 30-2 4-6 7-11 7-4 0-8-3-10-7-4-9-10-20-16-30-10-18-20-35-20-48 0-25 21-46 46-46 26 0 47 21 47 46 0 13-10 30-21 48z m-26-80c-17 0-32 15-32 32 0 9 10 26 19 41 5 8 9 17 13 24 4-7 9-16 14-24 8-15 18-32 18-41 0-17-14-32-32-32z"/>
<glyph glyph-name="fan" unicode="&#57376;" d="M453 512l-394 0c-33 0-59-26-59-59l0-175c0-4 3-8 7-8 4 0 8 4 8 8l0 175c0 25 19 44 44 44l394 0c25 0 44-19 44-44l0-394c0-25-19-44-44-44l-394 0c-25 0-44 19-44 44l0 183c0 5-4 8-8 8-4 0-7-3-7-8l0-183c0-33 26-59 59-59l394 0c33 0 59 26 59 59l0 394c0 33-26 59-59 59z m-6-37l-382 0c-15 0-28-13-28-28l0-382c0-15 13-28 28-28l382 0c15 0 28 13 28 28l0 382c0 15-13 28-28 28z m13-410c0-7-6-13-13-13l-382 0c-7 0-13 6-13 13l0 382c0 7 6 13 13 13l382 0c7 0 13-6 13-13z m-204 379c-104 0-188-84-188-188 0-104 84-188 188-188 104 0 188 84 188 188 0 104-84 188-188 188z m0-362c-96 0-174 78-174 174 0 96 78 174 174 174 96 0 174-78 174-174 0-96-78-174-174-174z m0 197c-13 0-23-10-23-23 0-12 10-22 23-22 12 0 23 10 23 22 0 13-11 23-23 23z m0-31c-5 0-8 4-8 8 0 5 3 8 8 8 4 0 8-3 8-8 0-4-4-8-8-8z m136-23c-13 32-58 40-88 42-1 3-2 6-4 9 10 8 19 17 27 26 2 3 2 8-1 10-3 3-8 3-10 0-7-8-15-16-23-23-7 8-17 13-27 15 0 0 0 0 0 0-1 0-2 0-3 1 0 0 0 0 0 0-1 0-1 0-2 0 0 0-1 0-1 0-1 0-1 0-1 0-1 0-2 0-3 0-1 0-2 0-3 0 0 0 0 0-1 0 0 0-1 0-1 0-1 0-1 0-2 0 0 0-1 0-1-1 0 0-1 0-1 0-1 0-1 0-1 0-1 0-2 0-2 0 0 0 0 0-1-1-3 0-5-1-8-3 0 0 0 0 0 0 0 0-1 0-1 0-11 21-27 59-10 80 13 17 46 23 72 20 23-2 43-11 48-21 4-9 1-24-8-40-2-4-1-8 2-10 4-2 8-1 10 2 13 22 16 40 9 54-8 16-30 27-60 29-28 3-67-2-85-25-21-28-4-71 10-98-2-1-4-3-5-5-25 9-53 15-75 15-23 0-39-7-48-19-9-14-8-39 4-67 11-25 34-57 63-61 3-1 5-1 7-1 32 0 59 33 74 57 2-1 5-2 8-2 7-43 28-102 63-105 1 0 2 0 3 0 0 0 0 0 0 0 21 0 43 21 57 41 15 22 28 55 19 81z m-224-57c-1 0-3 0-4 0-22 4-43 29-53 53-9 22-11 43-5 53 7 10 24 12 36 12 20 0 45-5 68-13 0-1 0-1 0-1-1-2-1-3-2-5 0 0 0 0 0 0 0-1 0-1 0-2 0 0 0 0 0-1 0 0 0-1 0-1 0 0 0-1-1-1 0 0 0-1 0-1 0-1 0-1 0-1 0-1 0-1 0-1 0-1 0-2 0-3 0-1 0-2 0-3 0 0 0 0 0 0 0-1 0-2 0-2 1-1 1-1 1-1 0-1 0-2 0-3 0 0 0 0 0 0 1-7 4-13 8-19 0 0 0 0 0 0 0 0 1-1 2-2 0 0 0 0 0 0 0-1 1-1 1-2 0 0 1 0 1 0 0-1 1-2 2-2 0 0 0-1 0-1 1 0 1-1 1-1 1 0 1-1 1-1 1 0 1 0 1-1 1 0 1 0 2-1 0 0 0 0 1 0 0-1 0-1 0-1-11-18-35-48-60-48z m88 54c0 0 0 0 0 0-5 0-10 1-14 3-1 1-2 1-2 1-1 0-1 0-1 0 0 1-1 1-1 1 0 0-1 1-1 1 0 0-1 0-2 1 0 0 0 0 0 0 0 1-1 1-1 1 0 0-1 1-1 1 0 0-1 1-1 1 0 0 0 0 0 0-1 1-1 1-2 2 0 0 0 0 0 0-4 5-7 11-8 17 0 0 0 0 0 0 0 1 0 2 0 3 0 0 0 0 0 0 0 1 0 2 0 2 0 1 0 2 0 2 0 1 0 1 0 1 0 0 0 1 0 1 0 1 0 1 0 1 0 1 0 1 0 2 0 0 0 0 0 0 1 1 1 3 1 4 0 0 0 0 1 0 0 1 0 1 0 2 0 0 0 0 0 0 1 1 1 1 1 2 0 0 0 0 0 0 0 1 1 1 1 2 2 4 6 8 10 11 1 0 1 1 1 1 1 0 1 0 1 1 1 0 1 0 2 0 0 1 0 1 1 1 0 0 1 0 1 1 0 0 1 0 1 0 1 0 1 0 2 1 0 0 0 0 1 0 0 0 1 0 1 0 1 1 1 1 1 1 1 0 1 0 2 0 0 0 0 0 1 0 0 0 1 0 2 0 0 0 0 0 1 0 0 1 1 1 2 1 1 0 1 0 2-1 0 0 0 0 1 0 0 0 0 0 1 0 0 0 1 0 1 0 0 0 0 0 1 0 0 0 0 0 1 0 0 0 0 0 0 0 8-2 15-7 20-13 0 0 0 0 0 0 1-1 1-1 1-1 0-1 0-1 1-1 3-5 5-10 5-16 0 0 0 0 0 0 0 0 0-1 0-1 0-1 0-1 0-2 0 0 0-1 0-1-1-18-16-33-34-33 0 0 0 0 0 0z m105-70c-14-21-33-35-45-35 0 0 0 0 0 0-1 0-1 0-2 0-22 2-42 48-50 91 1 0 1 0 1 0 0 0 1 1 1 1 0 0 1 0 1 0 1 0 1 0 1 0 0 0 1 0 1 0 1 0 2 1 3 1 0 0 0 0 0 0 1 1 1 1 2 1 0 0 0 0 0 0 1 0 1 1 2 1 0 0 0 0 0 0 1 0 1 0 2 1 0 0 0 0 0 0 7 3 13 9 18 15 0 0 0 0 0 0 2 3 3 5 4 8 1 0 1 1 1 1 0 0 0 1 0 1 0 0 0 1 0 1 1 0 1 1 1 1 0 0 0 1 0 1 0 0 1 1 1 1 0 0 0 1 0 1 0 1 0 1 0 2 0 0 1 1 1 1 0 1 0 1 0 1 0 1 0 1 0 2 0 0 0 0 0 1 0 0 0 0 0 1 0 0 0 0 1 1 0 0 0 0 0 0 23-1 64-7 73-33 6-16 0-43-17-67z m57 303c-17 0-31-14-31-31 0-17 14-31 31-31 17 0 31 14 31 31 0 17-14 31-31 31z m0-47c-9 0-16 7-16 16 0 9 7 16 16 16 9 0 17-7 17-16 0-9-8-16-17-16z"/>
<glyph glyph-name="faucethot" unicode="&#57377;" d="M493 396l-36 0c-4 0-7-3-7-7 0-4 3-7 7-7l36 0c2 0 3-2 3-4l0-76-113 0 0 19c0 3-1 6-4 7-3 1-6 0-8-2l-220-211-87 0 0 37c0 4-4 7-8 7-4 0-7-3-7-7l0-39c0-7 6-13 13-13l89 0c4 0 7 1 9 4l209 200 0-3c0-7 6-14 14-14l113 0c8 0 15 7 15 14l0 77c0 10-8 18-18 18z m7-172c-5 5-4 9-4 10 1 2 2 3 3 4 7 8 7 20 0 28-4 4-9 6-15 6-5 0-10-2-14-5-9-9-20-29-12-52-1 3-3 6-6 9-5 5-4 9-3 10 0 2 2 3 2 4 7 8 8 20 0 28-4 4-9 6-15 6-5 0-10-2-14-5-8-9-19-27-13-48-1 1-2 3-3 5-5 5-4 9-4 10 0 2 2 3 2 4 8 8 8 20 0 28-4 4-9 6-15 6-5 0-10-2-14-5-11-11-26-40-1-70 7-8-6-20-6-20-8-8-9-21-1-29 4-4 9-6 15-6 5 0 10 2 14 5 4 4 9 9 12 16 0-5 2-11 6-15 4-4 9-6 15-6 5 0 10 2 14 5 4 4 9 10 13 18 0-6 1-12 6-17 3-4 9-6 15-6 5 0 10 2 13 5 15 13 35 47 10 77z m-114-66c-1-1-3-2-4-2-2 0-3 1-4 2-2 2-2 6 0 8 9 8 20 26 8 41-23 27-2 48-1 49 2 1 3 2 4 2 2 0 4-1 5-2 2-2 2-6 0-8 0 0-1 0-1 0 0-1-4-5-5-10-2-8 0-16 6-24 19-21 3-46-8-56z m29 19c0 0 0 0 0 0 3 9 4 18 1 28 1-3 3-5 5-8 7-8-6-20-6-20z m18-19c-1-1-3-2-4-2-2 0-3 1-4 2-3 2-2 6 0 8 8 8 20 26 7 41-22 27-1 48 0 49 1 1 3 2 4 2 2 0 3-1 4-2 3-2 3-6 0-8 0 0 0 0 0 0 0-1-4-5-5-10-3-8 0-16 6-24 18-21 3-46-8-56z m30 19c-1 0-1-1-2-1 4 9 5 21 1 32 2-3 4-7 7-11 7-8-6-20-6-20z m17-19c-1-1-2-2-3-2-2 0-4 1-5 2-2 2-2 6 1 8 8 8 19 26 7 41-23 27-1 48 0 49 1 1 2 2 4 2 2 0 3-1 4-2 2-2 2-6 0-8 0 0 0 0 0 0-1-1-4-5-6-10-2-8 0-16 7-24 18-21 2-46-9-56z m-57 238l-44 0c-3 0-7-1-10-3l-208-137 0 50c0 16-13 29-29 29l-2 0 0 17 1 0c5 0 10 4 11 10l40-5c1 0 2 0 3 0 14 0 25 11 25 25 0 13-11 25-25 25-1 0-2 0-3-1l-40-4c-1 6-6 10-11 10l-52 0c-5 0-10-4-11-10l-41 4c0 1-1 1-2 1-14 0-25-12-25-25 0-14 11-25 25-25 1 0 2 0 2 0l41 5c1-6 6-10 11-10l1 0 0-17-2 0c-16 0-29-13-29-29l0-119c0-4 3-7 7-7 4 0 8 3 8 7l0 119c0 8 6 14 14 14l54 0c8 0 14-6 14-14l0-64c0-2 2-5 4-6 2-1 5-1 7 0l220 145c1 0 2 1 2 1l44 0c4 0 7 3 7 7 0 4-3 7-7 7z m-281-9l42 5c0 0 1 0 1 0 6 0 10-5 10-10 0-6-4-10-10-10 0 0-1 0-1 0l-42 4z m-116-15c0 0-1 0-1 0-6 0-10 4-10 10 0 5 4 10 10 10 0 0 1 0 1 0l42-5 0-11z m89-37l-20 0 0 17 20 0z m12 59l0-28-44 0 0 31 44 0z"/>
<glyph glyph-name="fence" unicode="&#57378;" d="M498 270c8 0 14 6 14 14l0 41c0 8-6 14-14 14l-12 0 0 10c0 4-3 7-7 7-4 0-8-3-8-7l0-209-61 0 0 231c0 17 13 31 31 31 12 0 24-8 29-21 1-3 5-5 9-4 4 1 6 6 4 9-6 18-23 30-42 30-26 0-46-20-46-45l0-32-32 0 0 32c0 25-20 45-45 45-26 0-46-20-46-45l0-32-32 0 0 32c0 25-20 45-46 45-25 0-45-20-45-45l0-32-32 0 0 32c0 25-20 45-46 45-25 0-45-20-45-45l0-32-12 0c-8 0-14-6-14-14l0-41c0-8 6-14 14-14l12 0 0-34-12 0c-8 0-14-6-14-14l0-41c0-8 6-14 14-14l12 0 0-27-12 0c-8 0-14-6-14-13l0-18c0-7 6-13 14-13l29 0c4 0 7 3 7 7 0 4-3 7-7 7l-28 0 0 16 482 0 0-16-419 0c-4 0-8-3-8-7 0-4 4-7 8-7l420 0c8 0 14 6 14 13l0 18c0 7-6 13-14 13l-12 0 0 27 12 0c8 0 14 6 14 14l0 41c0 8-6 14-14 14l-12 0 0 34z m-12 55l11 0 0-41-11 0z m-460-143l-11 0 0 40 11 0z m0 102l-11 0 0 41 11 0z m76-7l0-137-61 0 0 231c0 17 13 31 30 31 18 0 31-14 31-31z m47-137l-32 0 0 27 32 0z m0 42l-32 0 0 40 32 0z m0 54l-32 0 0 34 32 0z m0 48l-32 0 0 41 32 0z m76 48l0-192-61 0 0 231c0 17 13 31 30 31 18 0 31-14 31-31z m47-192l-32 0 0 27 32 0z m0 42l-32 0 0 40 32 0z m0 54l-32 0 0 34 32 0z m0 48l-32 0 0 41 32 0z m76 48l0-192-61 0 0 231c0 17 13 31 31 31 17 0 30-14 30-31z m47-192l-32 0 0 27 32 0z m0 42l-32 0 0 40 32 0z m0 54l-32 0 0 34 32 0z m0 48l-32 0 0 41 32 0z m91-62l11 0 0-40-11 0z"/>
<glyph glyph-name="heater" unicode="&#57379;" d="M488 145l-7 0 0 97c0 4-3 7-7 7-4 0-7-3-7-7l0-171c0-12-10-22-22-22-12 0-22 10-22 22l0 370c0 12 10 22 22 22 12 0 22-10 22-22l0-164c0-4 3-7 7-7 4 0 7 3 7 7l0 90 7 0c13 0 24 11 24 24 0 13-11 24-24 24l-7 0 0 26c0 20-16 36-36 36-12 0-23-5-30-14-6 9-17 14-29 14-12 0-22-5-29-14-7 9-17 14-29 14-12 0-23-5-30-14-6 9-17 14-29 14-12 0-23-5-29-14-7 9-18 14-30 14-12 0-22-5-29-14-7 9-17 14-29 14-20 0-37-16-37-36l0-26-15 0 0 45c0 9-8 17-18 17l-64 0c-10 0-18-8-18-17l0-332c0-4 3-7 7-7 4 0 8 3 8 7l0 332c0 1 1 3 3 3l64 0c2 0 3-2 3-3l0-408c0-1-1-3-3-3l-64 0c-2 0-3 2-3 3l0 41c0 4-4 8-8 8-4 0-7-4-7-8l0-41c0-9 8-17 18-17l64 0c10 0 18 8 18 17l0 45 15 0 0-26c0-20 17-36 37-36 12 0 22 5 29 14 7-9 17-14 29-14 12 0 23 5 30 14 6-9 17-14 29-14 12 0 23 5 29 14 7-9 18-14 30-14 12 0 22 5 29 14 7-9 17-14 29-14 12 0 23 5 29 14 7-9 18-14 30-14 20 0 36 16 36 36l0 26 7 0c13 0 24 11 24 24 0 13-11 24-24 24z m-7 256l7 0c5 0 9-5 9-10 0-5-4-9-9-9l-7 0z m-366-290l-15 0 0 19 15 0z m0 34l-15 0 0 222 15 0z m0 237l-15 0 0 19 15 0z m59-311c0-12-10-22-22-22-12 0-22 10-22 22l0 370c0 12 10 22 22 22 12 0 22-10 22-22z m58 0c0-12-10-22-22-22-12 0-22 10-22 22l0 370c0 12 10 22 22 22 12 0 22-10 22-22z m37-22c-12 0-22 10-22 22l0 370c0 12 10 22 22 22 12 0 22-10 22-22l0-370c0-12-10-22-22-22z m81 22c0-12-10-22-22-22-13 0-22 10-22 22l0 370c0 12 9 22 22 22 12 0 22-10 22-22z m58 0c0-12-10-22-22-22-12 0-22 10-22 22l0 370c0 12 10 22 22 22 12 0 22-10 22-22z m80 40l-7 0 0 19 7 0c5 0 9-4 9-9 0-5-4-10-9-10z m-421 333l-33 0c-7 0-12-5-12-12l0-33c0-6 5-11 12-11l33 0c6 0 11 5 11 11l0 33c0 7-5 12-11 12z m-4-41l-26 0 0 26 26 0z"/>
<glyph glyph-name="doorknob" unicode="&#57380;" d="M453 405c-96 6-319 19-321 19-29 0-53-23-53-52 0-29 24-52 53-52 2 0 225 13 321 19 17 1 30 16 30 33 0 17-13 32-30 33z m-1-51c-108-7-314-20-321-20-20 0-37 17-37 38 0 21 17 38 37 38 7 0 213-13 321-20 9 0 17-8 17-18 0-10-8-17-17-18z m-248-50c-4 0-8-3-8-7l0-255c0-15-12-27-27-27l-98 0c-16 0-28 12-28 27l0 65c0 4-3 7-7 7-4 0-7-3-7-7l0-65c0-23 18-42 42-42l98 0c23 0 42 19 42 42l0 255c0 4-3 7-7 7z m-35 208l-98 0c-24 0-42-19-42-42l0-328c0-4 3-8 7-8 4 0 7 4 7 8l0 328c0 15 12 27 28 27l98 0c15 0 27-12 27-27l0-23c0-5 4-8 8-8 4 0 7 3 7 8l0 23c0 23-19 42-42 42z m-49-322c-8 0-15-2-22-7 0-1-1-1-1-2-6-8-9-18-7-27 1-7 4-13 10-18l0-42c0-2 0-4 2-5 5-6 11-9 18-9 5 0 10 2 14 5 4 4 6 9 6 15l0 36c6 6 10 15 10 24 0 17-13 30-30 30z m8-44c-2-1-3-4-3-6l0-40c0-2 0-3-1-4-1-1-3-2-4-2-2 0-4 1-6 3l0 43c0 2-1 5-3 6-4 3-6 6-7 11-1 5 0 10 4 15 4 2 8 4 12 4 9 0 16-8 16-16 0-6-3-11-8-14z"/>
<glyph glyph-name="homemusic" unicode="&#57381;" d="M358 415l-95 82c-4 4-10 4-14 0l-93-81 0 11 1 0c7 0 12 6 12 12l0 21c0 7-5 12-12 12l-85 0c-6 0-12-5-12-12l0-21c0-6 6-12 12-12l4 0 0-79-72-64c-4-3-5-8-3-12 1-4 6-7 10-7l49 0 0-78 0 0c0-4 4-8 8-8 4 0 7 4 7 8l0 85c0 4-3 7-7 7l-48 0 69 60c1 1 2 3 2 5l0 83 50 0 0-27c0-3 2-5 4-6 3-1 6-1 8 1l103 89 92-80c4-3 8-2 11 1 2 3 2 7-1 10z m-204 27l-79 0 0 15 79 0z m354-158l-124 108c-3 3-7 3-10-1-3-3-2-7 1-10l117-102-48 0c-4 0-7-3-7-7l0-242c0-2-2-4-4-4l-354 0c-2 0-4 2-4 4l0 122c0 4-3 7-7 7-4 0-8-3-8-7l0-122c0-10 9-18 19-18l354 0c10 0 19 8 19 18l0 235 49 0c4 0 9 3 10 7 2 4 1 9-3 12z m-166 45c-1 0-2 0-3 0l-154-30c-6-1-10-6-10-12l0-165c-1 0-2 0-3 0-25 0-44-14-44-32 0-17 19-31 44-31 24 0 43 14 43 31 0 2 0 3-1 4l0 150 100 19 0-87c-1 0-2 0-3 0-25 0-44-14-44-32 0-17 19-31 44-31 24 0 43 14 43 31l0 173c0 7-6 12-12 12z m-3-185c0-9-13-17-28-17-16 0-29 8-29 17 0 9 13 17 29 17 3 0 6 0 9-1 2 0 4 0 6 2 2 1 3 3 3 5l0 99c0 7-5 12-12 12-1 0-2 0-2 0l-105-20c-6-1-10-6-10-12l0-153c0 0 0-1 0-1 0-1 0-1 0-2 0-9-13-17-28-17-16 0-29 8-29 17 0 9 13 17 29 17 3 0 6 0 9-1 2 0 4 0 6 2 2 1 3 3 3 6l0 171 149 29z"/>
<glyph glyph-name="homepass" unicode="&#57383;" d="M147 212l12 11c3 3 3 7 0 10-3 3-8 3-11 0l-11-11-11 11c-3 3-8 3-10 0-3-3-3-7 0-10l11-11-11-12c-3-2-3-7 0-10 1-1 3-2 5-2 2 0 3 1 5 2l11 11 11-11c2-1 4-2 6-2 1 0 3 1 5 2 3 3 3 8 0 10z m78 0l11 11c3 3 3 7 0 10-3 3-8 3-10 0l-12-11-11 11c-3 3-7 3-10 0-3-3-3-7 0-10l11-11-11-12c-3-2-3-7 0-10 1-1 3-2 5-2 2 0 4 1 5 2l11 11 12-11c1-1 3-2 5-2 2 0 3 1 5 2 3 3 3 8 0 10z m283 72l-124 108c-3 3-7 3-10-1-3-3-2-7 1-10l117-102-48 0c-4 0-7-3-7-7l0-242c0-2-2-4-4-4l-354 0c-2 0-4 2-4 4l0 122c0 4-3 7-7 7-4 0-8-3-8-7l0-122c0-10 9-18 19-18l354 0c10 0 19 8 19 18l0 235 49 0c4 0 9 3 10 7 2 4 1 9-3 12z m-356-136l-30 0c-7 0-12-6-12-13l0-30c0-6 5-12 12-12l30 0c7 0 13 6 13 12l0 30c0 7-6 13-13 13z m-2-41l-26 0 0 26 26 0z m233 41l-29 0c-7 0-13-6-13-13l0-30c0-6 6-12 13-12l29 0c7 0 13 6 13 12l0 30c0 7-6 13-13 13z m-2-41l-25 0 0 26 25 0z m-75 41l-29 0c-7 0-13-6-13-13l0-30c0-6 6-12 13-12l29 0c7 0 13 6 13 12l0 30c0 7-6 13-13 13z m-2-41l-25 0 0 26 25 0z m-75 41l-30 0c-7 0-12-6-12-13l0-30c0-6 5-12 12-12l30 0c7 0 13 6 13 12l0 30c0 7-6 13-13 13z m-2-41l-26 0 0 26 26 0z m184 152l-316 0c-5 0-10-4-10-10l0-75c0-5 5-10 10-10l316 0c5 0 9 5 9 10l0 75c0 6-4 10-9 10z m-5-80l-306 0 0 65 306 0z m-48 236l-95 82c-4 4-10 4-14 0l-81-70c1 2 1 3 1 5l0 21c0 6-5 11-12 11l-85 0c-6 0-12-5-12-11l0-21c0-7 6-12 12-12l4 0 0-72-72-64c-4-3-5-8-3-12 1-4 6-7 10-7l49 0 0-78c0-4 4-8 8-8 4 0 7 4 7 8l0 85c0 4-3 7-7 7l-48 0 69 60c1 1 2 3 2 5l0 76 50 0 0-20c0-3 2-5 4-6 3-1 6-1 8 1l103 89 92-80c4-3 8-2 11 1 2 3 2 7-1 10z m-204 20l-79 0 0 15 79 0z m235-233l-36 0c-4 0-7-3-7-7 0-4 3-7 7-7l36 0c4 0 7 3 7 7 0 4-3 7-7 7z m-80 0l-35 0c-4 0-8-3-8-7 0-4 4-7 8-7l35 0c4 0 7 3 7 7 0 4-3 7-7 7z"/>
<glyph glyph-name="garageclose" unicode="&#57384;" d="M508 277l-105 92c-3 3-8 2-11-1-2-3-2-7 1-10l99-86-45 0-184 160c-4 3-10 3-14 0l-184-160-45 0 69 59 0 0 64 57c0 0 0 0 0 0l103 89 111-96c3-3 8-3 10 0 3 3 3 8 0 11l-114 98c-4 4-10 4-14 0l-80-69 0 20c0 7-5 12-12 12l-85 0c-6 0-12-5-12-12l0-21c0-6 6-12 12-12l4 0 0-68-72-63c-4-3-5-8-3-12 1-5 6-8 10-8l49 0 0-129c0-4 4-7 8-7 4 0 7 3 7 7l0 133 45 40 136 118 136-118 45-40 0-223c0-3-2-4-4-4l-65 0 0 178 7 0c5 0 9 4 9 9l0 35c0 5-4 9-9 9l-238 0c-5 0-9-4-9-9l0-35c0-5 4-9 9-9l7 0 0-178-65 0c-2 0-4 1-4 4l0 55c0 4-3 8-7 8-4 0-8-4-8-8l0-55c0-11 9-19 19-19l354 0c10 0 19 8 19 19l0 219 49 0c4 0 9 3 10 8 2 4 1 9-3 12z m-367 119l-50-43 0 55 50 0z m-66 27l0 15 79 0 0-15z m279-389l-196 0 0 24 196 0z m0 38l-196 0 0 24 196 0z m0 39l-196 0 0 24 196 0z m0 39l-196 0 0 24 196 0z m-196 38l0 24 196 0 0-24z m203 39l-210 0c0 0 0 0 0 0l-9 0 0 23 228 0 0-23-9 0c0 0 0 0 0 0z"/>
<glyph glyph-name="garageopen" unicode="&#57385;" d="M174 87l-5 18c-1 4-5 7-9 8l-31 8c-1 0-2 1-3 1-4 0-7-2-9-4-2-3-3-6-3-10l2-17c1-5 5-9 9-10l35-9c1 0 2 0 3 0 3 0 7 2 9 4 2 4 3 7 2 11z m-43 7l-2 12 26-7 4-12z m264 24c-2 2-5 4-9 4-1 0-2-1-3-1l-31-8c-4-1-8-4-9-8l-5-18c-1-4 0-7 2-11 2-2 6-4 9-4 1 0 2 0 3 0l35 9c4 1 8 5 9 10l2 17c1 4 0 7-3 10z m-14-24l-28-7 4 12 26 7z m47 117l-19 0c-8 0-14-6-14-14l0-3-20 64c-5 14-17 23-31 23l-176 0c-14 0-26-9-30-23l-24-72 0 1c1 1 1 3 1 5l0 5c0 8-6 14-14 14l-18 0c-8 0-14-6-14-14l0-5c0-8 6-14 14-14l18 0c1 0 1 0 1 0l4-5c-9-9-15-22-15-36l0-59c0-12 8-21 18-25l0-19c0-12 10-22 22-22l22 0c12 0 22 10 22 22l0 18 162 0 0-18c0-12 10-22 22-22l22 0c12 0 22 10 22 22l0 19c11 4 18 13 18 25l0 59c0 15-6 28-16 37l3 4c0 0 0 0 1 0l19 0c7 0 13 6 13 14l0 5c0 8-6 14-13 14z m-328-19l-17 0 0 4 17 0z m51 62c3 7 9 12 17 12l176 0c8 0 14-5 17-12l22-69c0 0 0 0 0 0-1 0-1 0-1 0 0 0 0 0 0 0 0 0 0 0 0 0-1 0-1 0-1 0 0 0-1 0-1 0 0 0 0 0 0 0-1 0-1 0-1 1 0 0 0 0-1 0 0 0 0 0 0 0 0 0 0 0-1 0 0 0 0 0 0 0 0 0 0 0 0 0 0 0-1 0-1 0l-21 66c-1 5-6 8-11 8l-176 0c-5 0-10-3-11-8l-21-66c0 0 0 0 0 0-1 0-1 0-1 0 0 0 0 0 0 0-1 0-2 0-2 0 0-1 0-1 0-1 0 0 0 0 0 0-1 0-1 0-1 0-1 0-1 0-2 0 0 0 0 0 0 0 0 0 0 0 0 0-1 0-1 0-1 0z m210-68l-210 0 19 60 172 0z m-233-17c0 0 0 0 0 0 0 0 0 0 0 1 1 0 1 0 2 0 0 0 0 0 1 0 0 0 0 0 0 0 0 0 1 0 1 1 0 0 1 0 1 0 0 0 1 0 2 0 0 0 0 0 0 0 1 0 1 0 2 0 0 0 0 0 0 0 0 0 0 0 0 0 1 0 2 0 3 0 0 0 0 0 0 0l232 0c1 0 2 0 3 0 0 0 0 0 0 0 0 0 0 0 0 0 1 0 1 0 2 0 0 0 0 0 0 0 1 0 2 0 2 0 0 0 1 0 1 0 0-1 1-1 1-1 0 0 1 0 1 0 0 0 0 0 0 0 1 0 1 0 2 0 0-1 0-1 0-1 0 0 0 0 0 0 1 0 1 0 1 0-8-22-29-38-53-38l-152 0c-24 0-45 16-53 38 0 0 0 0 1 0z m33-135c0-4-4-7-8-7l-22 0c-4 0-7 3-7 7l0 18 37 0z m29 32l0 7c0 5 4 9 9 9l114 0c5 0 9-4 9-9l0-7z m199-32c0-4-4-7-8-7l-22 0c-4 0-7 3-7 7l0 18 37 0z m17 103l0-59c0-6-4-11-10-12 0 0 0 0-1 0l0 0-51 0-8 0 0 7c0 13-10 24-23 24l-114 0c-13 0-23-11-23-24l0-7-59 0 0 0c0 0-1 0-1 0-6 1-10 6-10 12l0 59c0 9 3 17 8 23 11-26 37-43 66-43l152 0c29 0 55 17 66 43 5-6 8-14 8-23z m21 55l-17 0 0 4 17 0z m79 192l-249 115c-2 1-3 1-5 1-3 0-5 0-6-1l-241-115c-3-2-5-5-5-9l0-24c0-4 3-7 6-9l0-319c0-6 5-11 11-11l38 0c6 0 11 5 11 11l0 290 380 0 0-290c0-6 5-11 11-11l38 0c6 0 11 5 11 11l0 319c3 2 6 5 6 9l0 24c0 4-2 7-6 9z m-454-64l0-293-31 0 0 315 31 0z m394 7l-380 0 0 15 380 0z m45-300l-31 0 0 315 31 0z m6 329l-482 0 0 16 237 113 245-113z"/>
<glyph glyph-name="telephone" unicode="&#57387;" d="M229 274c0 6-5 10-10 10l-27 0c-3 0-5-1-7-3-2-2-3-5-3-7l1-29c0-5 4-9 10-9l26 0c3 0 6 1 7 3 2 2 3 4 3 7z m-32-24l0 19 17 0 0-19z m79 31c-1 2-4 3-6 3l-28 0c-2 0-5-1-6-3-2-2-3-4-3-7l0-29c0-5 4-9 10-9l26 0c6 0 10 4 10 9l0 29c0 3-1 5-3 7z m-11-31l-18 0 0 19 18 0z m62 31c-2 2-4 3-7 3l-27 0c-5 0-10-4-10-10l0-28c0-3 1-5 3-7 1-2 4-3 7-3l26 0c6 0 10 4 10 9l1 29c0 2-1 5-3 7z m-12-31l-17 0 0 19 17 0z m-86-32c0 5-4 9-9 9l-27 0c-2 0-5-1-7-3-1-2-2-4-2-7l0-27c1-5 5-9 10-9l26 0c3 0 5 1 7 2 2 2 3 5 3 7z m-30-23l-1 17 17 0 0-17z m77 29c-2 2-4 3-7 3l-26 0c-3 0-5-1-7-3-2-2-3-4-3-7l0-27c0-5 5-9 10-9l26 0c5 0 10 4 10 9l0 27c0 3-1 5-3 7z m-12-29l-16 0 0 17 16 0z m62 29c-2 2-5 3-7 3l-27 0c-5 0-9-4-9-9l-1-28c0-2 1-5 3-7 2-1 4-2 7-2l26 0c5 0 9 4 10 9l0 27c0 3-1 5-2 7z m-13-29l-16 0 0 17 17 0z m-83-34c0 5-4 9-9 9l-26 0c-3 0-5-1-7-2-2-2-3-5-3-7l1-26c0-6 4-10 9-10l26 0c3 0 5 1 7 3 2 2 3 4 3 7z m-30-21l0 16 16 0 0-16z m76 28c-2 1-4 2-7 2l-26 0c-3 0-5-1-7-2-2-2-3-5-3-7l1-26c0-5 4-10 9-10l26 0c5 0 9 5 9 10l1 26c0 2-1 5-3 7z m-12-28l-16 0 0 16 16 0z m60 28c-2 1-4 2-7 2l-26 0c-5 0-9-4-9-9l-1-26c0-3 1-5 3-7 2-2 4-3 7-3l26 0c5 0 9 4 9 10l1 26c0 2-1 5-3 7z m-12-28l-16 0 0 16 16 0z m17 262c-2 3-6 5-10 5l-126 0c-4 0-8-2-10-5-3-2-4-6-4-10l2-59c0-8 6-14 14-14l122 0c8 0 14 6 14 14l2 59c0 4-1 8-4 10z m-12-68l-122 0-2 58 126 0z m23-273l-168 0c-8 0-14-7-14-14l0-7c0-8 6-14 14-14l168 0c8 0 14 6 14 14l0 7c0 7-6 14-14 14z m-1-20l-166 0 0 5 166 0z m92-13l-28 78c-4 11-17 18-31 18l-14 0 6 214c0 4-3 7-7 7-4 0-8-3-8-7l-6-221c0 0 0 0 0 0l-1-17c0-6-5-11-11-11l-150 0c-6 0-11 5-11 11l-9 317c0 2 0 4 1 5 2 1 3 2 5 2l178 0c2 0 3-1 5-2 1-1 1-3 1-5l-1-43c0-4 3-8 7-8 4 0 8 3 8 7l1 44c0 5-2 11-6 15-4 4-9 7-15 7l-124 0-3 61c0 7-5 12-12 12l-18 0c-7 0-13-5-13-12l-2-61-6 0c-6 0-11-3-15-7-4-4-6-10-6-15l8-293-14 0c-14 0-27-7-31-18l-8-23c-2-4 0-8 4-9 4-2 8 0 10 4l8 23c2 5 9 9 17 9l15 0 0-10c1-15 12-26 26-26l150 0c14 0 25 11 26 26l0 10 15 0c8 0 15-4 17-9l29-78c0-1 0-2-1-4-2-2-5-4-11-4l-300 0c-6 0-9 2-11 4-1 2-1 3-1 4l9 22c1 4-1 8-5 9-4 2-8 0-9-4l-8-22c-2-6-1-12 2-17 5-7 13-11 23-11l300 0c10 0 18 4 23 11 3 5 4 11 2 17z m-241 469l14 0 2-58-19 0z"/>
<glyph glyph-name="solarpanel-1" unicode="&#57388;" d="M512 140l-32 255c-1 4-5 7-9 6-4 0-7-4-6-8l32-254-482 0 41 327 400 0 4-37c1-4 5-7 9-7 4 1 7 5 6 9l-5 38c0 6-6 12-13 12l-402 0c-7 0-13-6-13-12l-42-329c0-4 1-9 4-12 2-2 5-4 9-4l206 0-5-44-68 0c-15 0-27-12-27-28l0-10c0-6 4-11 10-11l254 0c6 0 10 5 10 11l0 10c0 16-12 28-27 28l-68 0-5 44 206 0c4 0 7 2 9 4 3 3 4 8 4 12z m-278-16l44 0 5-44-54 0z m132-59c7 0 12-6 12-13l0-6-244 0 0 6c0 7 5 13 12 13z m-184 287c-2 2-4 3-7 3l-98 0c-6 0-11-4-12-10l-6-62c-1-3 0-6 2-9 2-2 5-3 8-3l102 0c6 0 11 5 11 11l3 62c0 3-1 6-3 8z m-14-66l-94 0 6 54 90 0z m148 58c0 6-5 11-11 11l-98 0c-6 0-11-5-11-11l-2-62c0-3 1-6 3-8 2-2 5-3 8-3l102 0c3 0 6 1 8 3 2 2 3 5 3 8z m-107-58l2 54 90 0 2-54z m244-3l-6 62c-1 6-6 10-12 10l-98 0c-3 0-5-1-7-3-2-2-3-5-3-8l3-62c0-6 5-11 11-11l102 0c3 0 6 1 8 3 2 3 3 6 2 9z m-109 3l-2 54 90 0 6-54z m-166-34c-3 2-5 4-8 4l-104 0c-6 0-11-5-12-11l-1-16c-1-4 2-8 6-8 4-1 8 2 9 6l1 14 96 0-2-64-101 0 2 14c0 4-3 8-7 8-4 1-8-2-8-6l-2-18c-1-3 0-7 3-9 2-2 4-4 7-4l109 0c6 0 11 5 11 12l4 70c0 3-1 6-3 8z m141-8c0 7-5 12-11 12l-104 0c-6 0-11-5-11-12l-2-70c0-3 1-6 3-8 2-2 5-4 8-4l108 0c3 0 6 2 8 4 2 2 3 5 3 8z m-113-67l2 64 96 0 2-64z m259-2l-7 70c-1 6-6 11-12 11l-104 0c-3 0-5-2-8-4-2-2-3-5-3-8l4-70c0-7 5-12 11-12l109 0c3 0 5 2 7 4 3 2 4 6 3 9z m-116 2l-2 64 96 0 7-64z m-162 264c-2 2-5 3-8 3l-93 0c-5 0-10-4-11-10l-6-55c0-3 1-6 3-8 2-3 5-4 7-4l97 0c6 0 11 5 11 11l3 55c0 3-1 6-3 8z m-15-59l-87 0 5 47 84 0z m141 52c0 6-5 10-11 10l-92 0c-6 0-11-4-11-10l-2-56c0-3 1-6 3-8 2-2 5-3 8-3l96 0c3 0 6 1 8 3 2 2 3 5 3 8z m-101-52l2 47 84 0 2-47z m231-3l-6 55c-1 6-6 10-11 10l-93 0c-3 0-6-1-8-3-2-2-3-5-3-8l3-55c0-6 5-11 11-11l97 0c2 0 5 1 7 4 2 2 3 5 3 8z m-103 3l-2 47 84 0 5-47z"/>
<glyph glyph-name="wifi" unicode="&#57389;" d="M473 180l-378 0c-4 0-7-4-7-8 0-4 3-7 7-7l378 0c14 0 24-11 24-24l0-76c0-13-10-24-24-24l-439 0c-11 0-19 8-19 19l0 86c0 10 8 19 19 19l26 0c4 0 8 3 8 7 0 4-4 8-8 8l-26 0c-19 0-34-16-34-34l0-86c0-19 15-34 34-34l439 0c22 0 39 18 39 39l0 76c0 21-17 39-39 39z m-377-38c-22 0-39-17-39-39 0-22 17-39 39-39 22 0 39 17 39 39 0 22-17 39-39 39z m0-64c-14 0-25 11-25 25 0 14 11 25 25 25 14 0 25-11 25-25 0-14-11-25-25-25z m340 55l-234 0c-11 0-19-9-19-20l0-20c0-11 8-20 19-20l234 0c11 0 19 9 19 20l0 20c0 11-8 20-19 20z m5-40c0-3-2-5-5-5l-234 0c-2 0-5 2-5 5l0 20c0 3 3 5 5 5l234 0c3 0 5-2 5-5z m-42 242c-38 38-89 59-143 59-54 0-105-21-143-59-12-12-12-32 0-43 6-6 13-9 21-9 8 0 16 3 22 9 27 26 62 41 100 41 38 0 73-15 100-41 6-6 14-9 22-9 8 0 15 3 21 9 12 11 12 31 0 43z m-10-33c-3-3-7-5-11-5-5 0-9 2-12 5-29 29-68 46-110 46-42 0-81-17-110-46-3-3-7-5-12-5-4 0-8 2-11 5-6 6-6 16 0 22 36 36 83 55 133 55 50 0 97-19 133-55 6-6 6-16 0-22z m67 101c-23 23-50 42-80 56-4 2-8 0-10-3-1-4 0-8 4-10 28-13 54-31 76-53 6-7 6-17 0-23-3-3-7-4-11-4-5 0-9 1-12 4-44 45-104 69-167 69-63 0-123-24-167-69-7-6-17-6-23 0-6 6-6 16 0 23 51 50 118 78 190 78 28 0 56-4 82-13 4-1 8 1 9 5 2 4 0 8-4 9-28 9-57 14-87 14-76 0-147-30-200-83-12-12-12-31 0-43 12-12 31-12 43 0 42 42 98 65 157 65 59 0 115-23 157-65 6-6 13-9 22-9 8 0 15 3 21 9 12 12 12 31 0 43z m-111-136c-24 23-55 37-89 37-34 0-65-14-89-37-6-6-9-14-9-22 0-8 3-16 9-21 6-6 13-9 21-9 8 0 16 3 22 9 12 12 29 19 46 19 17 0 34-7 46-19 6-6 14-9 22-9 8 0 15 3 21 9 12 11 12 31 0 43z m-10-33c-3-3-7-5-11-5-5 0-9 2-12 5-15 15-35 23-56 23-21 0-41-8-56-23-3-3-7-5-12-5-4 0-8 2-11 5-6 6-6 16 0 22 21 21 49 33 79 33 30 0 58-12 79-33 6-6 6-16 0-22z"/>
<glyph glyph-name="windowsclose" unicode="&#57390;" d="M235 452l-128 0c-7 0-14-6-14-14l0-159c0-8 7-14 14-14l128 0c7 0 14 6 14 14l0 159c0 8-7 14-14 14z m-1-173l-126 0 0 158 126 0z m1-31l-128 0c-7 0-14-6-14-14l0-159c0-7 7-14 14-14l128 0c7 0 14 7 14 14l0 159c0 8-7 14-14 14z m-1-172l-126 0 0 158 126 0z m171 376l-128 0c-7 0-14-6-14-14l0-159c0-8 7-14 14-14l128 0c7 0 14 6 14 14l0 159c0 8-7 14-14 14z m-1-173l-126 0 0 158 126 0z m1-31l-128 0c-7 0-14-6-14-14l0-159c0-7 7-14 14-14l128 0c7 0 14 7 14 14l0 159c0 8-7 14-14 14z m-1-172l-126 0 0 158 126 0z m90-24l-15 0 0 350c0 4-4 7-8 7-4 0-7-3-7-7l0-350-17 0 0 412c0 9-7 16-16 16l-350 0c-9 0-16-7-16-16l0-412-17 0 0 72c0 4-3 8-7 8-4 0-8-4-8-8l0-72-15 0c-8 0-14-6-14-14l0-23c0-8 6-15 14-15l476 0c8 0 14 7 14 15l0 23c0 8-6 14-14 14z m-414 412c0 1 0 1 1 1l350 0c1 0 1 0 1-1l0-412-352 0z m414-449c0 0 0 0 0 0l-476 0 0 23 476 0z m-29 497l-418 0c-8 0-14-6-14-14l0-339c0-4 4-7 8-7 4 0 7 3 7 7l0 338 416 0 0-60c0-4 3-8 7-8 4 0 8 4 8 8l0 61c0 8-6 14-14 14z"/>
<glyph glyph-name="unlock" unicode="&#57391;" d="M422 280l-264 0 0 77c0 26 10 50 29 69 19 18 43 28 69 28 0 0 0 0 1 0 53 0 97-44 97-99l0-10c0-15 13-28 29-28 16 0 28 13 28 28l0 10c0 33-10 65-29 92-3 3-7 4-10 2-4-3-4-7-2-10 18-25 27-54 27-84l0-10c0-7-6-14-14-14-8 0-15 7-15 14l0 10c0 63-50 114-111 114-30 0-59-11-80-33-22-21-33-49-33-79l0-77-29 0 0 77c0 37 15 73 42 99 26 27 62 41 99 41 0 0 0 0 0 0 34 0 66-12 91-34 3-2 8-2 11 1 2 3 2 8-1 10-28 25-64 38-101 38 0 0 0 0 0 0-41 0-80-16-110-45-29-30-45-69-45-110l0-77-11 0c-13 0-23-11-23-24l0-232c0-13 10-24 23-24l332 0c13 0 23 11 23 24l0 232c0 13-10 24-23 24z m9-256c0-5-4-9-9-9l-332 0c-5 0-9 4-9 9l0 232c0 5 4 9 9 9l332 0c5 0 9-4 9-9z m-66 205l-155 0c-4 0-8-3-8-7 0-4 4-7 8-7l155 0c5 0 9-4 9-9 0-4-4-8-9-8l-218 0c-5 0-9 4-9 8 0 5 4 9 9 9l28 0c4 0 7 3 7 7 0 4-3 7-7 7l-28 0c-13 0-23-10-23-23 0-12 10-22 23-22l218 0c13 0 23 10 23 22 0 13-10 23-23 23z m0-66l-218 0c-13 0-23-11-23-23 0-13 10-23 23-23l218 0c13 0 23 10 23 23 0 12-10 23-23 23z m0-31l-218 0c-5 0-9 3-9 8 0 4 4 8 9 8l218 0c5 0 9-4 9-8 0-5-4-8-9-8z m0-36l-218 0c-13 0-23-10-23-23 0-12 10-23 23-23l218 0c13 0 23 11 23 23 0 13-10 23-23 23z m0-31l-218 0c-5 0-9 4-9 8 0 5 4 9 9 9l218 0c5 0 9-4 9-9 0-4-4-8-9-8z"/>
<glyph glyph-name="windowsopen" unicode="&#57392;" d="M490 52l-5 0 0 175c0 4-3 7-7 7-4 0-8-3-8-7l0-175-25 0 0 413c0 4-3 7-6 7 0 0 0 0-1 0 0 0 0 1 0 1l-364 0c0 0 0-1 0-1-1 0-1 0-1 0 0 0 0 0 0 0 0 0 0 0-1 0 0 0 0 0 0 0 0 0 0 0 0 0-1 0-1 0-1 0 0 0 0 0 0 0-1 0-1 0-1-1 0 0 0 0 0 0 0 0 0 0 0 0 0 0-1 0-1 0 0 0 0 0 0 0 0 0 0-1 0-1 0 0-1 0-1 0 0 0 0 0 0 0 0 0 0-1 0-1 0 0 0 0-1 0 0 0 0 0 0 0 0-1 0-1 0-1 0 0 0 0 0 0 0 0 0-1 0-1 0 0 0 0 0 0 0 0 0 0 0-1 0 0 0 0 0 0 0 0 0 0 0-1l0-413-25 0 0 175c0 4-4 7-8 7-4 0-7-3-7-7l0-175-5 0c-9 0-16-7-16-16l0-20c0-9 7-16 16-16l468 0c9 0 16 7 16 16l0 20c0 9-7 16-16 16z m-59 402l0-402-10 0-92 34 0 320z m-25 4l-84-40c-4-2-7-6-7-11l0-322c0-5 3-10 9-12l55-21-246 0 55 21c6 2 9 7 9 12l0 322c0 5-3 9-7 11l-84 40z m-325-4l102-48 0-320-92-34-10 0z m409-439l-468 0c-1 0-2 0-2 1l0 20c0 1 1 2 2 2l468 0c1 0 2-1 2-2l0-20c0-1-1-1-2-1z m-24 497l-420 0c-10 0-19-8-19-19l0-231c0-4 3-8 7-8 4 0 8 4 8 8l0 231c0 3 2 4 4 4l420 0c2 0 4-1 4-4l0-232c0-4 4-7 8-7 4 0 7 3 7 7l0 232c0 11-9 19-19 19z m-59-93c-1 0-3 0-4-1l-51-25c-3-2-4-5-4-8l0-122c0-5 4-9 8-9l51 0c0 0 0 0 0 0 5 0 9 4 9 9l0 147c0 5-4 9-9 9z m-5-150l-40 0 0 112 40 20z m5-25l-51-1c-4 0-8-4-8-8l0-129c0-3 2-6 5-8l51-20c1 0 2 0 3 0 5 0 9 4 9 8l0 149c0 5-4 9-9 9z m-5-149l-40 16 0 118 40 0z m-246 148l-51 1c-5 0-9-4-9-9l0-149c0-4 4-8 9-8 1 0 2 0 3 0l51 20c3 2 5 5 5 8l0 129c0 4-4 8-8 8z m-6-133l-40-15c0 0 0 134 0 134l40 0z m10 283l-51 25c-1 1-3 1-4 1-5 0-9-4-9-9l0-147c0-5 4-9 9-9 0 0 0 0 0 0l51 0c4 0 8 4 8 9l0 122c0 3-1 6-4 8z m-10-124l-40 0c0 0 0 132 0 132l40-20z"/>
<glyph glyph-name="chevron-down" unicode="&#99;" d="M481 281l-212-212c-4-3-8-5-13-5-5 0-9 2-13 5l-212 212c-3 4-5 8-5 13 0 5 2 10 5 13l48 47c3 4 7 6 12 6 5 0 10-2 13-6l152-151 152 151c3 4 8 6 13 6 5 0 9-2 12-6l48-47c3-3 5-8 5-13 0-5-2-9-5-13z"/>
<glyph glyph-name="chevron-left" unicode="&#100;" d="M408 426l-152-152 152-151c3-4 5-8 5-13 0-5-2-10-5-13l-48-48c-3-3-8-5-13-5-5 0-9 2-12 5l-212 212c-4 4-6 8-6 13 0 5 2 10 6 13l212 212c3 4 7 6 12 6 5 0 10-2 13-6l48-47c3-4 5-8 5-13 0-5-2-9-5-13z"/>
<glyph glyph-name="chevron-right" unicode="&#101;" d="M389 261l-212-212c-3-3-7-5-12-5-5 0-10 2-13 5l-48 48c-3 3-5 8-5 13 0 5 2 9 5 13l152 151-152 152c-3 4-5 8-5 13 0 5 2 9 5 13l48 47c3 4 8 6 13 6 5 0 9-2 12-6l212-212c4-3 6-8 6-13 0-5-2-9-6-13z"/>
<glyph glyph-name="chevron-up" unicode="&#102;" d="M481 132l-48-47c-3-4-7-6-12-6-5 0-10 2-13 6l-152 151-152-151c-3-4-8-6-13-6-5 0-9 2-12 6l-48 47c-3 3-5 8-5 13 0 5 2 9 5 13l212 211c4 4 8 6 13 6 5 0 9-2 13-6l212-211c3-4 5-8 5-13 0-5-2-10-5-13z"/>
<glyph glyph-name="ambulance" unicode="&#103;" d="M165 110c0 10-4 18-11 26-7 7-16 10-26 10-10 0-19-3-26-10-7-8-11-16-11-26 0-10 4-19 11-26 7-7 16-11 26-11 10 0 19 4 26 11 7 7 11 16 11 26z m-110 146l110 0 0 73-46 0c-2 0-4-1-6-2l-56-56c-1-2-2-5-2-6z m366-146c0 10-4 18-11 26-7 7-16 10-26 10-10 0-19-3-26-10-7-8-11-16-11-26 0-10 4-19 11-26 7-7 16-11 26-11 10 0 19 4 26 11 7 7 11 16 11 26z m36 192l0 55c0 2-1 4-2 6-2 2-4 3-7 3l-64 0 0 64c0 2-1 5-3 6-1 2-3 3-6 3l-55 0c-3 0-5-1-7-3-1-1-2-4-2-6l0-64-64 0c-3 0-5-1-7-3-1-2-2-4-2-6l0-55c0-3 1-5 2-7 2-2 4-2 7-2l64 0 0-64c0-3 1-5 2-7 2-2 4-3 7-3l55 0c3 0 5 1 6 3 2 2 3 4 3 7l0 64 64 0c3 0 5 0 7 2 1 2 2 4 2 7z m73 155l0-329c0-5-2-9-5-13-4-3-8-5-13-5l-55 0c0-20-7-38-21-52-15-14-32-21-52-21-20 0-37 7-52 21-14 14-21 32-21 52l-110 0c0-20-7-38-21-52-15-14-32-21-52-21-20 0-37 7-52 21-14 14-21 32-21 52l-37 0c-5 0-9 2-13 5-3 4-5 8-5 13 0 5 2 9 5 13 4 3 8 5 13 5l0 119c0 5 2 11 4 17 2 6 6 11 9 14l57 57c3 3 8 7 14 9 6 2 12 4 17 4l46 0 0 91c0 5 1 9 5 13 4 4 8 5 13 5l329 0c5 0 9-1 13-5 3-4 5-8 5-13z"/>
<glyph glyph-name="heartbeat" unicode="&#109;" d="M366 219l87 0c-1-1-2-2-3-3-1 0-2-1-3-2l0-1-178-171c-4-4-8-5-13-5-5 0-9 1-13 5l-178 172c-1 0-3 2-6 5l106 0c4 0 8 2 11 4 3 3 5 6 6 10l20 80 55-190c1-4 3-7 6-10 3-2 7-3 11-3 4 0 8 1 11 3 3 3 6 6 7 10l41 138 16-32c4-6 9-10 17-10z m146 123c0-28-10-56-29-86l-106 0-32 63c-1 3-4 6-7 8-3 2-7 3-10 2-9-1-14-5-16-13l-37-123-56 196c-1 4-4 7-7 10-3 2-7 3-11 3-4 0-8-1-11-4-4-2-6-5-7-9l-33-133-121 0c-19 30-29 58-29 86 0 42 12 74 36 98 24 24 58 35 101 35 11 0 23-2 36-6 12-4 23-9 34-16 11-7 20-14 27-20 8-6 15-12 22-19 7 7 14 13 22 19 7 6 16 13 27 20 11 7 22 12 34 16 13 4 25 6 36 6 43 0 77-11 101-35 24-24 36-56 36-98z"/>
<glyph glyph-name="microphone-slash" unicode="&#116;" d="M132 242l-29-29c-8 20-12 40-12 61l0 37c0 5 2 9 6 13 3 3 8 5 13 5 5 0 9-2 13-5 3-4 5-8 5-13l0-37c0-10 1-21 4-32z m319 172l-104-103 0-37c0-25-9-46-26-64-18-18-40-27-65-27-10 0-21 2-31 5l-28-27c19-10 38-15 59-15 35 0 65 13 90 38 25 25 38 55 38 90l0 37c0 5 2 9 5 13 4 3 8 5 13 5 5 0 10-2 13-5 4-4 6-8 6-13l0-37c0-42-14-78-43-110-28-31-62-49-104-53l0-38 73 0c5 0 10-2 13-5 4-4 6-8 6-13 0-5-2-9-6-13-3-4-8-5-13-5l-182 0c-5 0-10 1-13 5-4 4-6 8-6 13 0 5 2 9 6 13 3 3 8 5 13 5l73 0 0 38c-24 2-46 10-67 23l-73-73c-2-1-4-2-7-2-2 0-4 1-6 2l-24 24c-1 2-2 4-2 6 0 3 1 5 2 7l353 353c2 1 4 2 7 2 2 0 4-1 6-2l24-24c1-2 2-4 2-6 0-3-1-5-2-7z m-109 38l-177-178 0 147c0 25 9 46 26 64 18 18 40 27 65 27 19 0 37-6 53-17 15-11 27-26 33-43z"/>
<glyph glyph-name="microphone" unicode="&#70;" d="M421 311l0-37c0-42-14-78-43-110-28-31-62-49-104-53l0-38 73 0c5 0 10-2 13-5 4-4 6-8 6-13 0-5-2-9-6-13-3-4-8-5-13-5l-182 0c-5 0-10 1-13 5-4 4-6 8-6 13 0 5 2 9 6 13 3 3 8 5 13 5l73 0 0 38c-42 4-76 22-104 53-29 32-43 68-43 110l0 37c0 5 2 9 6 13 3 3 8 5 13 5 5 0 9-2 13-5 3-4 5-8 5-13l0-37c0-35 13-65 38-90 25-25 55-38 90-38 35 0 65 13 90 38 25 25 38 55 38 90l0 37c0 5 2 9 5 13 4 3 8 5 13 5 5 0 10-2 13-5 4-4 6-8 6-13z m-74 110l0-147c0-25-9-46-26-64-18-18-40-27-65-27-25 0-47 9-65 27-17 18-26 39-26 64l0 147c0 25 9 46 26 64 18 18 40 27 65 27 25 0 47-9 65-27 17-18 26-39 26-64z"/>
<glyph glyph-name="zynga" unicode="&#80;" d="M364 485c0 0 32 3 57-14 9 1 16-3 21-12 4-8 13-29 6-42-2-2-7 8-7 8 0 0-3-12-10-17 1-26-9-44-12-50-1-3-1-6 1-10 1-3 18-64 17-84-1-20-11-44-19-53 2-16-6-31-10-37-4-7-12-33-14-45-3-12-3-25-1-29 3-4 14-16 13-22 0-6-13-13-19-13-6 0-18 4-21 12-3 8-4 23-2 31 3 8 17 68 9 103-21-9-57-9-57-9 0 0-6-31-13-49-2-5-2-34-2-53 0-18 6-47 6-47 0 0 9-6 8-14-1-9-11-13-20-13-9 0-21 6-21 18 0 11 1 36 0 55 0 18 0 30-3 42-3 12-12 42-12 66-3 0-7 2-7 2 0 0-14-16-24-26 2-6 5-18 5-21 0-2 3-4 7-6 4-2 18-9 17-16 0-8-17-9-32-3-3 2-15 44-17 49-2 6-3 9-1 14 2 5 8 20 7 29-1 9-17 23-28 23-9 0-22-13-32-20-11-9-25-23-28-25-3-2-30-51-36-66-2-5-6-33-29-32-10 0-19 12 10 32 7 17 17 35 18 38 1 4 8 48 21 90 13 42 32 62 36 65 3 2 4 3 1 5-3 2-33 28-27 83 1 7 3 5 5-10 2-15 14-49 41-60 2-1 21 13 118 20 1 17 3 35 3 35 0 0-7 6-8 16-3-5-5-7-9-6-4 1-4 21-3 35 1 14 18 20 24 21 8 4 16 3 16 3 0 0 15 15 57 9z"/>
</font>
</defs>
</svg>
